<svg width="72" height="72" viewBox="0 0 72 72" fill="none" xmlns="http://www.w3.org/2000/svg">
<g clip-path="url(#clip0_1690_11689)">
<path d="M66.1935 0H5.80645C2.60477 0 0 2.60477 0 5.80645V29.0323C0 32.2339 2.60477 34.8387 5.80645 34.8387H41.8065V39.1824C40.481 37.9304 38.6956 37.16 36.7326 37.1593H36.5944C36.5939 37.1593 36.5934 37.1593 36.593 37.1593C35.5002 37.1593 34.4755 37.5789 33.7079 38.3409C32.9394 39.1035 32.5161 40.1205 32.5161 41.2043V41.2445C32.5161 41.7661 32.6143 42.276 32.808 42.7603L34.4665 46.9063C34.7134 47.5236 34.8387 48.1741 34.8387 48.8397V53.4194C34.8387 63.6648 43.1739 72 53.4194 72C63.6648 72 72 63.6648 72 53.4194V36V32.5161V5.80645C72 2.60477 69.3952 0 66.1935 0ZM5.80645 32.5161C3.88539 32.5161 2.32258 30.9533 2.32258 29.0323V5.80645C2.32258 3.88539 3.88539 2.32258 5.80645 2.32258H66.1935C68.1146 2.32258 69.6774 3.88539 69.6774 5.80645V28.4959C68.9936 28.0993 68.2007 27.871 67.3548 27.871C66.509 27.871 65.7161 28.0993 65.0323 28.4959V27.871C65.0323 25.3096 62.9485 23.2258 60.3871 23.2258C59.5412 23.2258 58.7484 23.4541 58.0645 23.8507V23.2258C58.0645 22.38 57.8362 21.5871 57.4396 20.9032H65.0323V23.205H67.3548V6.96774C67.3548 5.68713 66.3129 4.64516 65.0323 4.64516H39.4839C38.2033 4.64516 37.1613 5.68713 37.1613 6.96774V27.871C37.1613 29.1516 38.2033 30.1935 39.4839 30.1935H41.8065V32.5161H5.80645ZM48.7742 23.2258V23.8507C48.0903 23.4541 47.2975 23.2258 46.4516 23.2258H39.4839V20.9032H49.3991C49.0025 21.5871 48.7742 22.38 48.7742 23.2258ZM41.8065 27.871H39.4839V25.5484H42.4314C42.0348 26.2322 41.8065 27.0251 41.8065 27.871ZM65.0323 13.9355H56.4596L57.6209 11.6129H65.0323V13.9355ZM48.0096 13.2936L47.1693 11.6129H55.0243L54.1839 13.2936C53.9859 13.6896 53.5879 13.9355 53.1451 13.9355H49.0483C48.6057 13.9355 48.2076 13.6894 48.0096 13.2936ZM65.0323 9.29032H39.4839V6.96774H65.0323V9.29032ZM39.4839 11.6129H44.5726L45.7339 13.9355H39.4839V11.6129ZM39.4839 18.5806V16.2581H49.0484H53.1453H65.0323V18.5806H39.4839ZM69.6774 53.4194C69.6774 62.3841 62.3841 69.6774 53.4194 69.6774C44.4546 69.6774 37.1613 62.3841 37.1613 53.4194V48.8395C37.1613 47.8772 36.9801 46.9364 36.623 46.0436L34.9646 41.8976C34.8811 41.689 34.8389 41.4692 34.8389 41.2445V41.2043C34.8389 40.7443 35.0183 40.3127 35.3442 39.9895C35.6738 39.6621 36.1174 39.482 36.5936 39.482H36.5941H36.7323C39.5244 39.4829 41.7963 41.7495 41.8065 44.5385V47.6129H42.9677L44.129 47.613L44.1295 44.5584C44.1295 44.5519 44.129 44.5454 44.129 44.5388V27.871C44.129 26.5904 45.171 25.5484 46.4516 25.5484C47.7322 25.5484 48.7742 26.5904 48.7742 27.871V47.6129H51.0968V27.871V23.2258C51.0968 21.9452 52.1387 20.9032 53.4194 20.9032C54.7 20.9032 55.7419 21.9452 55.7419 23.2258V27.871V47.6129H58.0645V27.871C58.0645 26.5904 59.1065 25.5484 60.3871 25.5484C61.6677 25.5484 62.7097 26.5904 62.7097 27.871V32.5161V47.6129H65.0323V32.5161C65.0323 31.2355 66.0742 30.1935 67.3548 30.1935C68.6354 30.1935 69.6774 31.2355 69.6774 32.5161V36V53.4194ZM65.0323 52.2581H67.3548V53.4194C67.3548 56.2744 66.4939 59.0207 64.8649 61.3617C63.2745 63.6473 61.0695 65.3898 58.4881 66.4008L57.6409 64.2384C62.062 62.5066 65.0323 58.1587 65.0323 53.4194V52.2581ZM55.5313 64.8399L55.9524 67.1239C55.122 67.2772 54.2696 67.3548 53.4194 67.3548V65.0323C54.1288 65.0323 54.8393 64.9675 55.5313 64.8399ZM32.5161 4.64516H6.96774C5.68713 4.64516 4.64516 5.68713 4.64516 6.96774V27.871C4.64516 29.1516 5.68713 30.1935 6.96774 30.1935H32.5161C33.7967 30.1935 34.8387 29.1516 34.8387 27.871V6.96774C34.8387 5.68713 33.7967 4.64516 32.5161 4.64516ZM32.5161 6.96774L32.5163 9.29032H6.96774V6.96774H32.5161ZM12.0565 20.9032L13.2178 23.2258H6.96774V20.9032H12.0565ZM15.4935 22.5839L14.6532 20.9032H22.5081L21.6678 22.5839C21.4698 22.9799 21.0718 23.2258 20.629 23.2258H16.5321C16.0895 23.2258 15.6915 22.9798 15.4935 22.5839ZM25.1048 20.9032H32.5171L32.5173 23.2258H23.9435L25.1048 20.9032ZM6.96774 18.5806V16.2581H32.5169L32.517 18.5806H6.96774ZM6.96774 13.9355V11.6129H32.5164L32.5166 13.9355H6.96774ZM32.5161 27.871H6.96774V25.5484H16.5323H20.6292H32.5176L32.5177 27.871C32.5176 27.871 32.5171 27.871 32.5161 27.871ZM16.2581 72C25.2228 72 32.5161 64.7067 32.5161 55.7419C32.5161 46.7772 25.2228 39.4839 16.2581 39.4839C7.29334 39.4839 0 46.7772 0 55.7419C0 64.7067 7.29334 72 16.2581 72ZM16.2581 41.8065C23.9422 41.8065 30.1935 48.0578 30.1935 55.7419C30.1935 63.426 23.9422 69.6774 16.2581 69.6774C8.57395 69.6774 2.32258 63.426 2.32258 55.7419C2.32258 48.0578 8.57395 41.8065 16.2581 41.8065ZM7.16284 58.5817L9.09537 59.87L11.073 56.9032H12.9739C13.3244 57.8913 14.1087 58.6756 15.0968 59.0261V60.9269L12.13 62.9048L13.4183 64.8373L15.0968 63.7183V67.3548H17.4194V63.7183L19.0979 64.8372L20.3862 62.9046L17.4194 60.9269V59.0261C18.4075 58.6756 19.1918 57.8915 19.5422 56.9032H21.4431L23.4209 59.87L25.3534 58.5817L24.2344 56.9032H27.871V54.5806H24.2344L25.3533 52.9021L23.4208 51.6138L21.4431 54.5806H19.5422C19.1918 53.5925 18.4075 52.8082 17.4194 52.4578V50.5569L20.3862 48.5791L19.0979 46.6466L17.4194 47.7656V44.129H15.0968V47.7656L13.4183 46.6467L12.13 48.5792L15.0968 50.5569V52.4578C14.1087 52.8082 13.3244 53.5924 12.9739 54.5806H11.073L9.09523 51.6138L7.16269 52.9021L8.28174 54.5806H4.64516V56.9032H8.28174L7.16284 58.5817ZM16.2581 54.5806C16.8984 54.5806 17.4194 55.1016 17.4194 55.7419C17.4194 56.3822 16.8984 56.9032 16.2581 56.9032C15.6178 56.9032 15.0968 56.3822 15.0968 55.7419C15.0968 55.1016 15.6178 54.5806 16.2581 54.5806Z" fill="url(#paint0_linear_1690_11689)"/>
</g>
<defs>
<linearGradient id="paint0_linear_1690_11689" x1="36" y1="72" x2="36" y2="0" gradientUnits="userSpaceOnUse">
<stop stop-color="#9F2FFF"/>
<stop offset="1" stop-color="#0BB1D3"/>
</linearGradient>
<clipPath id="clip0_1690_11689">
<rect width="72" height="72" fill="white"/>
</clipPath>
</defs>
</svg>
