<svg width="72" height="72" viewBox="0 0 72 72" fill="none" xmlns="http://www.w3.org/2000/svg">
<g clip-path="url(#clip0_1690_11794)">
<path d="M69.7464 46.1853C69.7464 51.8094 47.2501 57.4334 36.002 57.4334C25.478 57.4334 5.10619 52.5096 2.52896 47.2693C2.06708 46.3383 1.96978 48.8747 5.43379 16.5437C5.56497 15.3157 6.71523 14.4431 7.88166 14.6905C13.7265 15.8927 19.5713 17.2017 25.4161 17.6544C26.4917 17.7374 27.393 18.4966 27.6545 19.5427C27.9331 20.6572 28.9324 21.4394 30.0827 21.4394H41.9213C43.07 21.4394 44.0711 20.6577 44.3495 19.5427C44.6085 18.5066 45.5036 17.7375 46.5879 17.6544C53.9397 17.0843 63.2807 14.7856 64.2629 14.6666C65.413 14.5162 66.4465 15.3907 66.5702 16.5437L69.7464 46.1853Z" fill="#3889E0"/>
<path d="M61.8687 15.1557C61.599 32.9335 47.1006 47.2677 29.2533 47.2677H2.52917C2.35061 46.9078 2.25781 46.5451 2.25781 46.1837C2.47462 44.1642 5.26374 18.1313 5.434 16.5421C5.55619 15.398 6.58047 14.5153 7.74128 14.665C9.04986 14.8235 17.94 17.0737 25.4163 17.6528C26.4919 17.7358 27.3932 18.495 27.6547 19.5411C27.9334 20.6556 28.9326 21.4378 30.0829 21.4378H41.9215C43.0703 21.4378 44.0713 20.6561 44.3497 19.5411C44.6097 18.5011 45.5086 17.7355 46.5881 17.6528C51.6821 17.2577 56.7747 16.2131 61.8687 15.1557Z" fill="#3889E0"/>
<path d="M45.6614 17.9087C43.0405 33.3095 29.6351 45.0181 13.5058 45.0181H2.38281L5.43387 16.5421C5.55605 15.398 6.58033 14.5153 7.74114 14.665C9.04972 14.8235 17.9398 17.0737 25.4162 17.6528C26.4918 17.7358 27.393 18.495 27.6546 19.5411C27.9332 20.6556 28.9325 21.4378 30.0827 21.4378H41.9214C43.0701 21.4378 44.0712 20.6561 44.3496 19.5411C44.5334 18.8059 45.0328 18.2206 45.6614 17.9087Z" fill="#3889E0"/>
<path d="M36.0032 59.6436C27.4495 59.6436 12.2002 56.4792 4.82538 52.2246C2.44303 50.8502 -0.272412 48.6389 0.0220078 45.9063L3.19778 16.265C3.46492 13.7712 5.80791 11.9281 8.33452 12.4474C13.9577 13.6039 19.8826 14.9303 25.5914 15.3726C27.635 15.531 29.3415 16.9719 29.838 18.9581C29.8664 19.0713 29.9676 19.1505 30.0843 19.1505H41.922C42.0387 19.1505 42.1401 19.0713 42.1683 18.958C42.6645 16.972 44.3711 15.531 46.4148 15.3726C53.6852 14.8094 62.5452 12.5847 63.9696 12.3972C66.396 12.0777 68.5531 13.8785 68.8084 16.2652C72.2162 48.0698 71.9971 45.9612 71.9971 46.1459C71.9973 54.9058 44.8641 59.6436 36.0032 59.6436ZM4.51732 46.1835C4.69195 46.766 6.98053 49.2053 15.9655 51.8447C22.684 53.8183 30.7366 55.1444 36.0032 55.1444C41.2699 55.1444 49.3223 53.8183 56.0409 51.8447C65.0019 49.2124 67.3023 46.7791 67.4885 46.1764L64.3518 16.901C46.1512 20.6549 46.6639 19.5271 46.5335 20.0488C46.0035 22.1691 44.1072 23.6496 41.9221 23.6496H30.0845C27.8992 23.6496 26.0031 22.1689 25.4732 20.0489C25.4467 19.9435 25.3548 19.867 25.2441 19.8584C19.3287 19.4002 13.4108 18.0877 7.65485 16.901L4.51732 46.1835Z" fill="#E5D5FF"/>
<path d="M10.1309 44.9778C8.14479 44.9778 7.1191 42.5586 8.5403 41.1376L19.7884 29.8894C20.6669 29.0108 22.0914 29.0108 22.9698 29.8894C23.8484 30.7679 23.8484 32.1923 22.9698 33.0708L11.7217 44.319C11.2825 44.7582 10.7067 44.9778 10.1309 44.9778Z" fill="#F9F9F9"/>
<path d="M22.502 44.9778C20.5159 44.9778 19.4902 42.5586 20.9114 41.1376L32.1595 29.8894C33.038 29.0108 34.4624 29.0108 35.3409 29.8894C36.2195 30.7679 36.2195 32.1923 35.3409 33.0708L24.0928 44.319C23.6536 44.7582 23.0778 44.9778 22.502 44.9778Z" fill="#F9F9F9"/>
<path d="M34.877 44.9778C32.8909 44.9778 31.8652 42.5586 33.2864 41.1376L44.5345 29.8894C45.413 29.0108 46.8374 29.0108 47.7159 29.8894C48.5945 30.7679 48.5945 32.1923 47.7159 33.0708L36.4678 44.319C36.0286 44.7582 35.4528 44.9778 34.877 44.9778Z" fill="#F9F9F9"/>
</g>
<defs>
<clipPath id="clip0_1690_11794">
<rect width="72" height="72" fill="white"/>
</clipPath>
</defs>
</svg>
