<svg width="72" height="72" viewBox="0 0 72 72" fill="none" xmlns="http://www.w3.org/2000/svg">
<path fill-rule="evenodd" clip-rule="evenodd" d="M13.7425 48.6422C13.702 40.478 11.8234 32.81 10.729 31.8004C6.28373 27.6985 6.50142 18.8176 14.0517 15.9952C25.4281 11.7423 21.3013 1.01357 29.0642 0.0078125H42.9313C50.6938 1.01061 46.5679 11.7436 57.9446 15.9952C65.4954 18.8172 65.7122 27.6985 61.2673 31.8004C60.173 32.8104 58.2939 40.478 58.2543 48.6422C55.9964 48.4975 53.8803 49.2484 52.2573 50.6301V22.2057C52.2573 20.9641 51.2495 19.9558 50.0074 19.9558H21.9999C20.7583 19.9558 19.75 20.9641 19.75 22.2057V50.6398C18.1258 49.2522 16.0055 48.497 13.7421 48.6422H13.7425ZM45.3267 13.402H26.6823C26.1309 13.402 25.7263 12.8772 25.866 12.3439L27.2721 6.9827C27.7378 5.2066 28.8246 4.18861 30.2535 4.18861L41.7442 4.18819C45.066 4.18819 45.0133 9.14355 46.0971 12.2119C46.3447 12.9126 45.8532 13.402 45.3267 13.402ZM27.7758 11.7145H44.2218L43.0929 7.4109C42.9094 6.71059 42.5259 5.87569 41.7437 5.87569H30.2539C29.4722 5.87569 29.0891 6.71059 28.9052 7.4109L27.7758 11.7145Z" fill="#3889E0"/>
<path fill-rule="evenodd" clip-rule="evenodd" d="M63.8735 72.0005H8.125C7.65925 72.0005 7.28125 71.6221 7.28125 71.1567V57.0416C7.28125 53.1759 10.4259 50.0312 14.2916 50.0312C18.1577 50.0312 21.3023 53.1759 21.3023 57.0416V60.7735H50.6966V57.0416C50.6966 53.1759 53.8412 50.0312 57.7069 50.0312C61.573 50.0312 64.7176 53.1759 64.7176 57.0416V71.1567C64.7185 71.6225 64.3401 72.0005 63.8739 72.0005H63.8735Z" fill="#3889E0"/>
<path fill-rule="evenodd" clip-rule="evenodd" d="M21.3281 52.4279C22.8848 50.3084 25.368 48.9609 28.2153 48.9609H43.5598C46.4446 48.9609 49.0096 50.3561 50.6161 52.5072C49.1003 54.8702 49.2893 56.7382 49.2893 59.3653H22.7072C22.7072 56.7057 22.8962 54.8128 21.3281 52.4279Z" fill="#3889E0"/>
<path fill-rule="evenodd" clip-rule="evenodd" d="M21.1562 50.4728V22.207C21.1562 21.7413 21.5343 21.3633 22 21.3633H50.0076C50.4733 21.3633 50.8513 21.7413 50.8513 22.207V50.6263C48.9457 48.6785 46.3309 47.5568 43.56 47.5568H28.2155C25.5269 47.5568 23.0091 48.6055 21.1562 50.4728ZM41.8468 26.2132H30.1604C29.0496 26.2132 29.0496 24.5257 30.1604 24.5257H41.8472C42.958 24.5257 42.958 26.2132 41.8463 26.2132H41.8468ZM41.8468 32.3679H30.1604C29.0496 32.3679 29.0496 30.6804 30.1604 30.6804H41.8472C42.958 30.6804 42.958 32.3679 41.8463 32.3679H41.8468ZM41.8468 38.5218H30.1604C29.0496 38.5218 29.0496 36.8343 30.1604 36.8343H41.8472C42.958 36.8343 42.9576 38.5218 41.8463 38.5218H41.8468ZM41.8468 44.6762H30.1604C29.0496 44.6762 29.0496 42.9887 30.1604 42.9887H41.8472C42.958 42.9887 42.9576 44.6762 41.8463 44.6762H41.8468Z" fill="#3889E0"/>
</svg>
