<svg width="72" height="72" viewBox="0 0 72 72" fill="none" xmlns="http://www.w3.org/2000/svg">
<path d="M57.375 33.75V30.285C59.2471 30.0134 60.959 29.0775 62.1983 27.6482C63.4375 26.219 64.1214 24.3917 64.125 22.5V18C64.125 17.7016 64.0065 17.4155 63.7955 17.2045C63.5845 16.9935 63.2984 16.875 63 16.875H61.875V11.25C61.875 10.9516 61.7565 10.6655 61.5455 10.4545C61.3345 10.2435 61.0484 10.125 60.75 10.125C60.4516 10.125 60.1655 10.2435 59.9545 10.4545C59.7435 10.6655 59.625 10.9516 59.625 11.25V16.875H52.875V11.25C52.875 10.9516 52.7565 10.6655 52.5455 10.4545C52.3345 10.2435 52.0484 10.125 51.75 10.125C51.4516 10.125 51.1655 10.2435 50.9545 10.4545C50.7435 10.6655 50.625 10.9516 50.625 11.25V16.875H49.5C49.2016 16.875 48.9155 16.9935 48.7045 17.2045C48.4935 17.4155 48.375 17.7016 48.375 18V22.5C48.3786 24.3917 49.0625 26.219 50.3017 27.6482C51.541 29.0775 53.2529 30.0134 55.125 30.285V32.625H50.4675C48.3709 31.7269 46.1533 31.1432 43.8862 30.8925C43.4634 31.6188 42.9897 32.3143 42.4688 32.9737C46.575 33.4462 49.4213 34.335 50.4113 35.2125C50.4387 35.2415 50.4689 35.2679 50.5012 35.2913C51.1349 35.8096 51.6785 36.4292 52.11 37.125C52.1294 37.1807 52.1559 37.2336 52.1887 37.2825L54.45 41.2762C48.6788 40.7925 42.8625 40.5225 37.1362 40.5H35.8875C29.79 40.5 23.6138 40.7588 17.55 41.265L19.8113 37.2825C19.8441 37.2336 19.8706 37.1807 19.89 37.125C19.9451 36.9678 20.0168 36.817 20.1038 36.675C19.4696 36.2632 18.8644 35.8083 18.2925 35.3137C18.1025 35.6093 17.9406 35.9219 17.8087 36.2475L16.8221 37.9867C16.7664 37.7434 16.6303 37.526 16.4358 37.3696C16.2412 37.2133 15.9996 37.1271 15.75 37.125H9C8.70163 37.125 8.41548 37.2435 8.20451 37.4545C7.99353 37.6655 7.875 37.9516 7.875 38.25V41.625C7.87508 41.8911 7.9695 42.1486 8.14149 42.3517C8.31348 42.5548 8.55189 42.6903 8.81438 42.7343L13.6733 43.5443L13.3763 44.0662C12.33 45.18 11.655 47.925 10.8562 52.2338C10.7775 52.695 10.6988 53.0775 10.6425 53.3588L10.1925 55.5862C10.0914 56.079 10.1037 56.5882 10.2284 57.0755C10.3531 57.5627 10.5871 58.0152 10.9125 58.3987C11.0172 58.5115 11.13 58.6164 11.25 58.7126V61.875C11.25 62.4717 11.4871 63.044 11.909 63.466C12.331 63.8879 12.9033 64.125 13.5 64.125H20.25C20.8467 64.125 21.419 63.8879 21.841 63.466C22.2629 63.044 22.5 62.4717 22.5 61.875V60.327C27 60.5959 31.5135 60.75 36 60.75C40.4865 60.75 45 60.5959 49.5 60.327V61.875C49.5 62.4717 49.7371 63.044 50.159 63.466C50.581 63.8879 51.1533 64.125 51.75 64.125H58.5C59.0967 64.125 59.669 63.8879 60.091 63.466C60.5129 63.044 60.75 62.4717 60.75 61.875V58.725C60.8785 58.6154 60.9988 58.4966 61.11 58.3695C61.4272 57.9883 61.6546 57.5406 61.7754 57.0596C61.8961 56.5786 61.9071 56.0766 61.8075 55.5908L61.3575 53.3632C61.3013 53.082 61.2225 52.6995 61.1437 52.2382C60.345 47.9407 59.67 45.1845 58.6238 44.0707L58.3268 43.5487L63.1856 42.7388C63.4489 42.6947 63.6879 42.5585 63.86 42.3545C64.032 42.1505 64.126 41.8919 64.125 41.625V38.25C64.125 37.9516 64.0065 37.6655 63.7955 37.4545C63.5845 37.2435 63.2984 37.125 63 37.125H56.25C55.9992 37.127 55.7565 37.2139 55.5616 37.3717C55.3666 37.5294 55.231 37.7487 55.1768 37.9935L54.18 36.2362C53.9425 35.7404 53.634 35.2819 53.2643 34.875H56.25C56.5484 34.875 56.8345 34.7565 57.0455 34.5455C57.2565 34.3345 57.375 34.0484 57.375 33.75ZM13.1512 52.1887C13.41 50.805 13.7813 48.9262 14.22 47.4637L21.6675 49.3312L23.0512 52.7737L13.1512 52.1887ZM43.875 54C43.8732 54.5962 43.6356 55.1675 43.214 55.589C42.7925 56.0106 42.2212 56.2482 41.625 56.25H30.375C29.7788 56.2482 29.2075 56.0106 28.786 55.589C28.3644 55.1675 28.1268 54.5962 28.125 54V52.875C28.1277 51.9807 28.4841 51.1238 29.1165 50.4915C29.7488 49.8591 30.6057 49.5027 31.5 49.5H40.5C41.3943 49.5027 42.2512 49.8591 42.8835 50.4915C43.5159 51.1238 43.8723 51.9807 43.875 52.875V54ZM58.8488 52.1887L48.9487 52.7737L50.3325 49.3312L57.7912 47.4637C58.2187 48.9262 58.59 50.805 58.8488 52.1887Z" fill="#318FDE"/>
<path d="M40.5 51.75H31.5C31.2016 51.75 30.9155 51.8685 30.7045 52.0795C30.4935 52.2905 30.375 52.5766 30.375 52.875V54H41.625V52.875C41.625 52.5766 41.5065 52.2905 41.2955 52.0795C41.0845 51.8685 40.7984 51.75 40.5 51.75Z" fill="#407093"/>
<path d="M27.849 22.8892C27.9551 23.0114 28.0335 23.1551 28.0789 23.3105C28.1243 23.4658 28.1357 23.6291 28.1123 23.7892L27.5093 28.0046L33.4729 21.3761H30.3735C30.2101 21.376 30.0487 21.3404 29.9004 21.2716C29.7522 21.2028 29.6207 21.1026 29.5151 20.9778C29.4096 20.8531 29.3324 20.7069 29.2891 20.5493C29.2458 20.3917 29.2373 20.2266 29.2643 20.0654L29.7469 17.1641L25.0039 22.5011H26.9985C27.1598 22.501 27.3193 22.5356 27.466 22.6026C27.6128 22.6696 27.7434 22.7673 27.849 22.8892Z" fill="#407093"/>
<path d="M29.25 37.125C32.1426 37.125 34.9701 36.2673 37.3752 34.6602C39.7803 33.0532 41.6548 30.7691 42.7617 28.0968C43.8687 25.4244 44.1583 22.4838 43.594 19.6468C43.0297 16.8098 41.6368 14.2039 39.5914 12.1586C37.5461 10.1132 34.9402 8.72033 32.1032 8.15602C29.2662 7.59171 26.3256 7.88134 23.6533 8.98827C20.9809 10.0952 18.6968 11.9697 17.0898 14.3748C15.4827 16.7799 14.625 19.6075 14.625 22.5C14.6295 26.3774 16.1717 30.0948 18.9135 32.8365C21.6552 35.5783 25.3726 37.1205 29.25 37.125ZM21.6596 22.8769L30.6596 12.7519C30.8219 12.5697 31.039 12.4453 31.2781 12.3972C31.5173 12.3492 31.7656 12.3802 31.9856 12.4856C32.2056 12.591 32.3854 12.765 32.4979 12.9814C32.6104 13.1979 32.6495 13.445 32.6093 13.6856L31.7036 19.125H36C36.2174 19.1251 36.4302 19.1881 36.6126 19.3066C36.7949 19.4251 36.939 19.5938 37.0275 19.7925C37.1159 19.9911 37.1449 20.2111 37.1109 20.4259C37.0769 20.6407 36.9813 20.841 36.8359 21.0026L26.7109 32.2526C26.5495 32.4319 26.3348 32.5545 26.0984 32.6024C25.862 32.6503 25.6165 32.621 25.398 32.5188C25.1796 32.4165 24.9998 32.2468 24.8851 32.0346C24.7705 31.8224 24.727 31.579 24.7613 31.3403L25.7029 24.75H22.5C22.283 24.75 22.0707 24.6873 21.8885 24.5694C21.7064 24.4515 21.5622 24.2835 21.4734 24.0855C21.3846 23.8876 21.3549 23.6681 21.3879 23.4537C21.421 23.2392 21.5153 23.0389 21.6596 22.8769Z" fill="#3090DE"/>
</svg>
