<svg width="72" height="72" viewBox="0 0 72 72" fill="none" xmlns="http://www.w3.org/2000/svg">
<g clip-path="url(#clip0_1690_11842)">
<path d="M58.7937 70.7992H39.5937C32.966 70.7992 27.5938 65.4267 27.5938 58.7992V13.1992C27.5938 6.57151 32.9662 1.19922 39.5937 1.19922H58.7937C65.4213 1.19922 70.7936 6.57165 70.7936 13.1992V58.7992C70.7936 65.4267 65.4213 70.7992 58.7937 70.7992Z" fill="#3889E0"/>
<path d="M38.3937 16.7991C41.0446 16.7991 43.1937 14.6501 43.1937 11.9992C43.1937 9.34823 41.0446 7.19922 38.3937 7.19922C35.7428 7.19922 33.5938 9.34823 33.5938 11.9992C33.5938 14.6501 35.7428 16.7991 38.3937 16.7991Z" fill="#AFB6BB"/>
<path d="M53.9931 21.5977H44.393C39.0915 21.5977 34.793 25.896 34.793 31.1977V35.9977H63.593V31.1977C63.593 25.896 59.2946 21.5977 53.9931 21.5977Z" fill="#AFB6BB"/>
<path d="M34.793 50.3984V55.1984C34.793 60.5 39.0913 64.7984 44.393 64.7984H53.9931C59.2946 64.7984 63.5931 60.5001 63.5931 55.1984V50.3984H34.793Z" fill="#AFB6BB"/>
<path d="M63.593 36H34.793V50.4H63.593V36Z" fill="#6C797A"/>
<path d="M56.3961 40.8008H41.9961V45.6007H56.3961V40.8008Z" fill="#3C5656"/>
<path d="M51.5937 31.1984H46.7937C46.1314 31.1984 45.5938 30.6608 45.5938 29.9984V27.5984C45.5938 26.936 46.1314 26.3984 46.7937 26.3984H51.5937C52.256 26.3984 52.7936 26.936 52.7936 27.5984V29.9984C52.7936 30.6608 52.2561 31.1984 51.5937 31.1984Z" fill="#6C797A"/>
<path d="M51.5937 59.9992H46.7937C46.1314 59.9992 45.5938 59.4616 45.5938 58.7992V56.3992C45.5938 55.7368 46.1314 55.1992 46.7937 55.1992H51.5937C52.256 55.1992 52.7936 55.7368 52.7936 56.3992V58.7992C52.7936 59.4616 52.2561 59.9992 51.5937 59.9992Z" fill="#6C797A"/>
<path d="M27.5956 16.6758L1.51485 62.4377C0.876416 63.5585 1.26285 64.9853 2.38012 65.6297L4.54968 66.8826C5.67764 67.533 7.1189 67.1417 7.76212 66.009L27.5957 31.0747L27.5956 16.6758Z" fill="#E7ECED"/>
<path d="M58.7947 72H39.5946C32.3165 72 26.3945 66.078 26.3945 58.8V13.2C26.3947 5.922 32.3167 0 39.5946 0H58.7945C66.0726 0 71.9946 5.922 71.9946 13.2V58.8001C71.9946 66.078 66.0738 72 58.7947 72ZM39.5946 2.40005C33.6402 2.40005 28.7946 7.2457 28.7946 13.2V58.8001C28.7946 64.7557 33.639 69.6001 39.5946 69.6001H58.7945C64.7501 69.6001 69.5945 64.7557 69.5945 58.8001V13.2C69.5945 7.2457 64.7501 2.40005 58.7945 2.40005H39.5946Z" fill="#407093"/>
<path d="M38.3946 18.0001C35.0862 18.0001 32.3945 15.3085 32.3945 12C32.3945 8.69156 35.0861 6 38.3946 6C41.7031 6 44.3946 8.69156 44.3946 12C44.3946 15.3085 41.7029 18.0001 38.3946 18.0001ZM38.3946 8.40005C36.4098 8.40005 34.7946 10.0153 34.7946 12C34.7946 13.9848 36.4098 15.6 38.3946 15.6C40.3794 15.6 41.9946 13.9848 41.9946 12C41.9946 10.0153 40.3806 8.40005 38.3946 8.40005Z" fill="#407093"/>
<path d="M63.5937 37.1983H34.7937C34.1314 37.1983 33.5938 36.662 33.5938 35.9984V31.1984C33.5938 25.2441 38.4394 20.3984 44.3938 20.3984H53.9938C59.9494 20.3984 64.7938 25.2441 64.7938 31.1984V35.9984C64.7937 36.662 64.2573 37.1983 63.5937 37.1983ZM35.9949 34.7984H62.3949V31.1984C62.3949 26.5664 58.6257 22.7985 53.9949 22.7985H44.3949C39.7641 22.7985 35.9949 26.5665 35.9949 31.1984V34.7984Z" fill="#407093"/>
<path d="M53.9938 65.9991H44.3938C38.4394 65.9991 33.5938 61.1547 33.5938 55.1991V50.3992C33.5938 49.7356 34.1314 49.1992 34.7937 49.1992H63.5937C64.2573 49.1992 64.7937 49.7356 64.7937 50.3992V55.1991C64.7938 61.1547 59.9494 65.9991 53.9938 65.9991ZM35.9951 51.5991V55.1991C35.9951 59.8299 39.7631 63.5991 44.395 63.5991H53.9951C58.6258 63.5991 62.395 59.8299 62.395 55.1991V51.5991H35.9951Z" fill="#407093"/>
<path d="M63.5937 51.6007H34.7937C34.1314 51.6007 33.5938 51.0643 33.5938 50.4007V36.0007C33.5938 35.3384 34.1314 34.8008 34.7937 34.8008H63.5937C64.2573 34.8008 64.7937 35.3384 64.7937 36.0007V50.4007C64.7937 51.0643 64.2573 51.6007 63.5937 51.6007ZM35.9949 49.2008H62.3949V37.2008H35.9949V49.2008Z" fill="#407093"/>
<path d="M56.3929 46.8014H41.9929C41.3293 46.8014 40.793 46.2651 40.793 45.6015V40.8015C40.793 40.1379 41.3293 39.6016 41.9929 39.6016H56.3929C57.0565 39.6016 57.5929 40.1379 57.5929 40.8015V45.6015C57.5929 46.2651 57.0565 46.8014 56.3929 46.8014ZM43.1929 44.4014H55.1928V42.0013H43.1929V44.4014Z" fill="#407093"/>
<path d="M51.5945 32.3994H46.7946C45.471 32.3994 44.3945 31.323 44.3945 29.9993V27.5993C44.3945 26.2757 45.4709 25.1992 46.7946 25.1992H51.5945C52.9181 25.1992 53.9946 26.2756 53.9946 27.5993V29.9993C53.9944 31.323 52.9181 32.3994 51.5945 32.3994ZM46.7944 27.5994V29.9995H51.5957L51.5944 27.5994H46.7944Z" fill="#407093"/>
<path d="M51.5945 61.2001H46.7946C45.471 61.2001 44.3945 60.1238 44.3945 58.8001V56.4C44.3945 55.0765 45.4709 54 46.7946 54H51.5945C52.9181 54 53.9946 55.0763 53.9946 56.4V58.8001C53.9944 60.1238 52.9181 61.2001 51.5945 61.2001ZM46.7944 56.4002V58.8002H51.5957L51.5944 56.4002H46.7944Z" fill="#407093"/>
<path d="M5.71598 68.3955C5.10159 68.3955 4.49676 68.2348 3.94959 67.9203L1.77876 66.6675C0.0951962 65.6955 -0.491632 63.5319 0.470806 61.8422L26.5528 16.0791C26.8215 15.6063 27.3736 15.3734 27.9028 15.5126C28.4285 15.6519 28.7956 16.1283 28.7956 16.6731V31.0718C28.7956 31.2794 28.7416 31.4834 28.6397 31.6645L8.80481 66.5992C8.33442 67.4259 7.56998 68.0212 6.65198 68.2708C6.34246 68.3547 6.02802 68.3955 5.71598 68.3955ZM26.3956 21.2019L2.55641 63.0291C2.24563 63.5752 2.4352 64.2735 2.97885 64.5879L5.14968 65.8408C5.41729 65.9956 5.72807 66.034 6.02324 65.9548C6.31968 65.8744 6.5669 65.6812 6.7192 65.4136L26.3956 30.7551V21.2019Z" fill="#407093"/>
</g>
<defs>
<clipPath id="clip0_1690_11842">
<rect width="72" height="72" fill="white"/>
</clipPath>
</defs>
</svg>
