<svg width="72" height="72" viewBox="0 0 72 72" fill="none" xmlns="http://www.w3.org/2000/svg">
<g clip-path="url(#clip0_1690_11808)">
<path fill-rule="evenodd" clip-rule="evenodd" d="M24.2266 70.7126C24.2266 71.4227 24.8021 71.9983 25.5122 71.9983H29.3694C30.0795 71.9983 30.6551 71.4227 30.6551 70.7126V66.8555H24.2266V70.7126Z" fill="#3889E0"/>
<path fill-rule="evenodd" clip-rule="evenodd" d="M30.6523 51.4297H21.6523V54.001H31.938L30.6523 51.4297Z" fill="#3889E0"/>
<path fill-rule="evenodd" clip-rule="evenodd" d="M57.6562 54.001H67.9407V51.4297H58.942L57.6562 54.001Z" fill="#3889E0"/>
<path fill-rule="evenodd" clip-rule="evenodd" d="M58.9415 70.7126C58.9415 71.4227 59.5171 71.9983 60.2272 71.9983H64.0843C64.7944 71.9983 65.37 71.4227 65.37 70.7126V66.8555H58.9414L58.9415 70.7126Z" fill="#3889E0"/>
<path d="M64.0811 45H25.5096C23.3793 45 21.6525 46.7269 21.6525 48.8571H30.6524C31.6257 48.8527 32.5173 49.4009 32.9526 50.2715L34.2383 52.843C34.6403 53.6407 34.5995 54.5899 34.1304 55.3502C33.6614 56.1104 32.8314 56.5729 31.9381 56.5714H21.6523V63.0001C21.6523 63.7101 22.2279 64.2857 22.938 64.2857H66.6523C67.3624 64.2857 67.938 63.7101 67.938 63.0001V56.5714H57.6522C56.7591 56.5723 55.9296 56.1097 55.4609 55.3496C54.9922 54.5894 54.9515 53.6405 55.3533 52.8428L56.639 50.2714C57.0764 49.4034 57.9658 48.8562 58.9379 48.857H67.9379C67.9382 46.7269 66.2114 45 64.0811 45ZM42.224 48.8571H47.3668C48.0769 48.8571 48.6525 49.4327 48.6525 50.1428C48.6525 50.8529 48.0769 51.4285 47.3668 51.4285H42.224C41.5139 51.4285 40.9383 50.8529 40.9383 50.1428C40.9383 49.4327 41.5139 48.8571 42.224 48.8571ZM53.7954 59.1429C53.7954 60.5631 52.6441 61.7144 51.224 61.7144H38.3668C36.9467 61.7144 35.7954 60.5631 35.7954 59.1429V56.5714C35.7954 55.1513 36.9467 54 38.3668 54H51.224C52.6441 54 53.7954 55.1513 53.7954 56.5714V59.1429Z" fill="#3889E0"/>
<path fill-rule="evenodd" clip-rule="evenodd" d="M38.3672 56.5703L38.3685 59.1418H51.2256V56.5703H38.3685H38.3672Z" fill="#3889E0"/>
<path fill-rule="evenodd" clip-rule="evenodd" d="M30.5083 35.1494L34.125 31.5185C34.3698 31.2829 34.5089 30.9583 34.5108 30.6185C34.5114 30.2722 34.3723 29.9404 34.125 29.6979L23.2209 18.7951L21.3965 16.972C21.2511 16.8396 21.0958 16.7185 20.9324 16.6094C19.3882 20.5445 15.5952 23.1357 11.3679 23.1434C10.8754 23.1399 10.3838 23.1005 9.89704 23.0251L9.58594 23.3362L15.0451 28.8005L17.7747 26.0709C18.2767 25.569 19.0907 25.569 19.5927 26.0709L28.6827 35.1609C28.9256 35.4028 29.2552 35.5376 29.598 35.5355C29.9408 35.5333 30.2684 35.3943 30.5083 35.1494Z" fill="#3889E0"/>
<path fill-rule="evenodd" clip-rule="evenodd" d="M2.3125 30.6098L7.73316 36.0367L7.76523 36.0676L9.58715 34.2508L4.12928 28.793L2.3125 30.6098Z" fill="#3889E0"/>
<path fill-rule="evenodd" clip-rule="evenodd" d="M16.2954 33.9415C16.2395 33.7103 16.1202 33.4992 15.9508 33.332L7.76982 25.1523L5.94922 26.9729L13.5003 34.524C13.7076 34.7315 13.8378 35.0037 13.8693 35.2954L14.6793 42.5725C14.7155 42.9128 14.8858 43.2247 15.1525 43.4391C15.4154 43.6517 15.7524 43.7503 16.0886 43.713C16.3808 43.6876 16.6545 43.5585 16.8599 43.3492C17.1374 43.0726 17.272 42.6838 17.2251 42.2949L16.3123 34.1152C16.3097 34.0569 16.3041 33.999 16.2954 33.9415Z" fill="#3889E0"/>
<path fill-rule="evenodd" clip-rule="evenodd" d="M37.0835 30.625C37.0828 31.6477 36.6703 32.6269 35.9392 33.3417L32.3264 36.9726C31.3034 38.004 29.7818 38.3619 28.4063 37.8944L27.1836 42.4291H31.4046L41.3135 32.5202C41.818 32.0329 42.6199 32.0398 43.1159 32.5358C43.6118 33.0317 43.6188 33.8336 43.1315 34.3381L35.0443 42.4291H42.9797L52.8886 32.5202C53.3932 32.0329 54.1951 32.0398 54.691 32.5358C55.1869 33.0317 55.194 33.8336 54.7066 34.3381L46.6156 42.4291H62.412L58.4572 27.628C58.1597 26.5045 57.1456 25.7203 55.9835 25.7148H33.7856L35.9482 27.8787C36.6801 28.6045 37.0893 29.5943 37.0835 30.625Z" fill="#3889E0"/>
<path fill-rule="evenodd" clip-rule="evenodd" d="M3.65286 0H19.0828C19.7929 0 20.3684 0.575585 20.3684 1.28568C20.3684 1.99577 19.7929 2.57135 19.0828 2.57135H3.65286C2.94277 2.57135 2.36719 1.99577 2.36719 1.28568C2.36719 0.575585 2.94277 0 3.65286 0Z" fill="#3889E0"/>
<path fill-rule="evenodd" clip-rule="evenodd" d="M23.2188 15.1495L24.1343 16.0649L25.0433 15.1559C25.368 14.831 25.4947 14.3574 25.3757 13.9137C25.2566 13.47 24.9099 13.1234 24.4661 13.0047C24.0223 12.8859 23.5488 13.013 23.2241 13.3379L22.3164 14.2469L23.2165 15.147L23.2188 15.1495Z" fill="#3889E0"/>
<path fill-rule="evenodd" clip-rule="evenodd" d="M70.51 38.5703H66.6529C65.9428 38.5703 65.3672 39.1459 65.3672 39.856V42.4275H70.51C71.2201 42.4275 71.7957 41.8519 71.7957 41.1418V39.8561C71.7957 39.146 71.2201 38.5703 70.51 38.5703Z" fill="#3889E0"/>
<path fill-rule="evenodd" clip-rule="evenodd" d="M11.3666 20.5731C15.6254 20.5688 19.0766 17.1176 19.0809 12.8588V5.14453H3.65234V12.8588C3.65664 17.1176 7.108 20.5688 11.3666 20.5731Z" fill="#3889E0"/>
<path fill-rule="evenodd" clip-rule="evenodd" d="M0.203125 37.5909L0.789323 38.1784L4.60402 36.5443L1.83723 33.7773L0.203125 37.5909Z" fill="#3889E0"/>
</g>
<defs>
<clipPath id="clip0_1690_11808">
<rect width="72" height="72" fill="white"/>
</clipPath>
</defs>
</svg>
