<svg width="72" height="72" viewBox="0 0 72 72" fill="none" xmlns="http://www.w3.org/2000/svg">
<g clip-path="url(#clip0_1690_11691)">
<path d="M3.78899 71.4658C3.20642 71.4658 2.73438 70.9937 2.73438 70.4111V8.38274C2.73438 7.80017 3.20642 7.32812 3.78899 7.32812C4.37156 7.32812 4.84361 7.80017 4.84361 8.38274V70.4111C4.84361 70.9937 4.37156 71.4658 3.78899 71.4658Z" fill="#407093"/>
<path d="M6.80818 32.8592H1.05462C0.472046 32.8592 0 32.3872 0 31.8046C0 31.222 0.472046 30.75 1.05462 30.75H6.80818C7.39074 30.75 7.86279 31.222 7.86279 31.8046C7.86279 32.3872 7.39074 32.8592 6.80818 32.8592Z" fill="#365E7D"/>
<path d="M6.80818 37.0741H1.05462C0.472046 37.0741 0 36.602 0 36.0195C0 35.4369 0.472046 34.9648 1.05462 34.9648H6.80818C7.39074 34.9648 7.86279 35.4369 7.86279 36.0195C7.86279 36.602 7.39074 37.0741 6.80818 37.0741Z" fill="#365E7D"/>
<path d="M6.80818 41.285H1.05462C0.472046 41.285 0 40.813 0 40.2304C0 39.6478 0.472046 39.1758 1.05462 39.1758H6.80818C7.39074 39.1758 7.86279 39.6478 7.86279 40.2304C7.86279 40.813 7.39074 41.285 6.80818 41.285Z" fill="#365E7D"/>
<path d="M6.80818 45.4959H1.05462C0.472046 45.4959 0 45.0239 0 44.4413C0 43.8588 0.472046 43.3867 1.05462 43.3867H6.80818C7.39074 43.3867 7.86279 43.8588 7.86279 44.4413C7.86279 45.0239 7.39074 45.4959 6.80818 45.4959Z" fill="#365E7D"/>
<path d="M6.80818 49.7108H1.05462C0.472046 49.7108 0 49.2387 0 48.6562C0 48.0736 0.472046 47.6016 1.05462 47.6016H6.80818C7.39074 47.6016 7.86279 48.0736 7.86279 48.6562C7.86279 49.2387 7.39074 49.7108 6.80818 49.7108Z" fill="#365E7D"/>
<path d="M6.80818 53.9217H1.05462C0.472046 53.9217 0 53.4497 0 52.8671C0 52.2845 0.472046 51.8125 1.05462 51.8125H6.80818C7.39074 51.8125 7.86279 52.2845 7.86279 52.8671C7.86279 53.4497 7.39074 53.9217 6.80818 53.9217Z" fill="#365E7D"/>
<path d="M6.80818 58.1366H1.05462C0.472046 58.1366 0 57.6645 0 57.082C0 56.4994 0.472046 56.0273 1.05462 56.0273H6.80818C7.39074 56.0273 7.86279 56.4994 7.86279 57.082C7.86279 57.6645 7.39074 58.1366 6.80818 58.1366Z" fill="#365E7D"/>
<path d="M6.80818 62.3475H1.05462C0.472046 62.3475 0 61.8755 0 61.2929C0 60.7103 0.472046 60.2383 1.05462 60.2383H6.80818C7.39074 60.2383 7.86279 60.7103 7.86279 61.2929C7.86279 61.8755 7.39074 62.3475 6.80818 62.3475Z" fill="#365E7D"/>
<path d="M6.80818 66.5584H1.05462C0.472046 66.5584 0 66.0864 0 65.5038C0 64.9213 0.472046 64.4492 1.05462 64.4492H6.80818C7.39074 64.4492 7.86279 64.9213 7.86279 65.5038C7.86279 66.0864 7.39074 66.5584 6.80818 66.5584Z" fill="#365E7D"/>
<path d="M68.2109 71.4658C67.6283 71.4658 67.1562 70.9937 67.1562 70.4111V8.38274C67.1562 7.80017 67.6283 7.32812 68.2109 7.32812C68.7934 7.32812 69.2655 7.80017 69.2655 8.38274V70.4111C69.2655 70.9937 68.7933 71.4658 68.2109 71.4658Z" fill="#407093"/>
<path d="M70.9449 32.8592H65.1913C64.6088 32.8592 64.1367 32.3872 64.1367 31.8046C64.1367 31.222 64.6088 30.75 65.1913 30.75H70.9449C71.5275 30.75 71.9995 31.222 71.9995 31.8046C71.9995 32.3872 71.5275 32.8592 70.9449 32.8592Z" fill="#365E7D"/>
<path d="M70.9449 37.0741H65.1913C64.6088 37.0741 64.1367 36.602 64.1367 36.0195C64.1367 35.4369 64.6088 34.9648 65.1913 34.9648H70.9449C71.5275 34.9648 71.9995 35.4369 71.9995 36.0195C71.9995 36.602 71.5275 37.0741 70.9449 37.0741Z" fill="#365E7D"/>
<path d="M70.9449 41.285H65.1913C64.6088 41.285 64.1367 40.813 64.1367 40.2304C64.1367 39.6478 64.6088 39.1758 65.1913 39.1758H70.9449C71.5275 39.1758 71.9995 39.6478 71.9995 40.2304C71.9995 40.813 71.5275 41.285 70.9449 41.285Z" fill="#365E7D"/>
<path d="M70.9449 45.4959H65.1913C64.6088 45.4959 64.1367 45.0239 64.1367 44.4413C64.1367 43.8588 64.6088 43.3867 65.1913 43.3867H70.9449C71.5275 43.3867 71.9995 43.8588 71.9995 44.4413C71.9995 45.0239 71.5275 45.4959 70.9449 45.4959Z" fill="#365E7D"/>
<path d="M70.9449 49.7108H65.1913C64.6088 49.7108 64.1367 49.2387 64.1367 48.6562C64.1367 48.0736 64.6088 47.6016 65.1913 47.6016H70.9449C71.5275 47.6016 71.9995 48.0736 71.9995 48.6562C71.9995 49.2387 71.5275 49.7108 70.9449 49.7108Z" fill="#365E7D"/>
<path d="M70.9449 53.9217H65.1913C64.6088 53.9217 64.1367 53.4497 64.1367 52.8671C64.1367 52.2845 64.6088 51.8125 65.1913 51.8125H70.9449C71.5275 51.8125 71.9995 52.2845 71.9995 52.8671C71.9995 53.4497 71.5275 53.9217 70.9449 53.9217Z" fill="#365E7D"/>
<path d="M70.9449 58.1366H65.1913C64.6088 58.1366 64.1367 57.6645 64.1367 57.082C64.1367 56.4994 64.6088 56.0273 65.1913 56.0273H70.9449C71.5275 56.0273 71.9995 56.4994 71.9995 57.082C71.9995 57.6645 71.5275 58.1366 70.9449 58.1366Z" fill="#365E7D"/>
<path d="M70.9449 62.3475H65.1913C64.6088 62.3475 64.1367 61.8755 64.1367 61.2929C64.1367 60.7103 64.6088 60.2383 65.1913 60.2383H70.9449C71.5275 60.2383 71.9995 60.7103 71.9995 61.2929C71.9995 61.8755 71.5275 62.3475 70.9449 62.3475Z" fill="#365E7D"/>
<path d="M70.9449 66.5584H65.1913C64.6088 66.5584 64.1367 66.0864 64.1367 65.5038C64.1367 64.9213 64.6088 64.4492 65.1913 64.4492H70.9449C71.5275 64.4492 71.9995 64.9213 71.9995 65.5038C71.9995 66.0864 71.5275 66.5584 70.9449 66.5584Z" fill="#365E7D"/>
<path d="M58.8216 61.7158H13.1772C11.9533 61.7158 10.9609 60.7236 10.9609 59.4996V48.6147C10.9609 47.3908 11.9531 46.3984 13.1772 46.3984H58.8216C60.0456 46.3984 61.0379 47.3906 61.0379 48.6147V59.4996C61.0379 60.7236 60.0456 61.7158 58.8216 61.7158Z" fill="#80B4FB"/>
<path d="M58.8211 46.3984H55.9492C57.1731 46.3984 58.1655 47.3908 58.1655 48.6147V59.4996C58.1655 60.7235 57.1733 61.7157 55.9492 61.7157H58.8211C60.0451 61.7157 61.0374 60.7235 61.0374 59.4996V48.6147C61.0374 47.3906 60.0451 46.3984 58.8211 46.3984Z" fill="#61A2F9"/>
<path d="M21.7 70.4122C19.2768 70.4122 17.3125 68.4478 17.3125 66.0247V61.7148H26.0876V66.0246C26.0876 68.4478 24.1232 70.4122 21.7 70.4122Z" fill="#407093"/>
<path d="M50.2976 70.4122C47.8744 70.4122 45.9102 68.4478 45.9102 66.0247V61.7148H54.6853V66.0246C54.6851 68.4478 52.7207 70.4122 50.2976 70.4122Z" fill="#407093"/>
<path d="M17.3125 61.7148H26.0876V63.9148H17.3125V61.7148Z" fill="#365E7D"/>
<path d="M45.9102 61.7148H54.6853V63.9148H45.9102V61.7148Z" fill="#365E7D"/>
<path d="M57.472 46.3997H14.5195L21.1265 30.7921C21.8269 29.1375 23.4493 28.0625 25.2461 28.0625H46.7455C48.5423 28.0625 50.1647 29.1375 50.8651 30.7921L57.472 46.3997Z" fill="#80B4FB"/>
<path d="M14.5195 46.399H57.472L56.4813 44.0586H15.5102L14.5195 46.399Z" fill="#61A2F9"/>
<path d="M20.0039 46.3977L25.1646 33.8041C25.3785 33.2823 25.8864 32.9414 26.4504 32.9414H45.5454C46.1093 32.9414 46.6173 33.2823 46.8312 33.8041L51.9919 46.3977H20.0039Z" fill="#D3EFFB"/>
<path d="M20.0039 46.399H51.9918L51.0327 44.0586H20.963L20.0039 46.399Z" fill="#B1E4F9"/>
<path d="M22.3947 56.8869H19.6524C18.0884 56.8869 16.8203 55.619 16.8203 54.0548C16.8203 52.4907 18.0882 51.2227 19.6524 51.2227H22.3947C23.9588 51.2227 25.2269 52.4906 25.2269 54.0548C25.2269 55.6189 23.9589 56.8869 22.3947 56.8869Z" fill="#FFE07D"/>
<path d="M52.34 56.8869H49.5978C48.0337 56.8869 46.7656 55.619 46.7656 54.0548C46.7656 52.4907 48.0336 51.2227 49.5978 51.2227H52.34C53.9041 51.2227 55.1722 52.4906 55.1722 54.0548C55.1722 55.6189 53.9042 56.8869 52.34 56.8869Z" fill="#FFE07D"/>
<path d="M40.6669 53.1913H30.5507C29.9681 53.1913 29.4961 52.7192 29.4961 52.1366C29.4961 51.5541 29.9681 51.082 30.5507 51.082H40.6669C41.2494 51.082 41.7215 51.5541 41.7215 52.1366C41.7215 52.7192 41.2494 53.1913 40.6669 53.1913Z" fill="#F9F6F9"/>
<path d="M40.6669 57.0272H30.5507C29.9681 57.0272 29.4961 56.5552 29.4961 55.9726C29.4961 55.39 29.9681 54.918 30.5507 54.918H40.6669C41.2494 54.918 41.7215 55.39 41.7215 55.9726C41.7215 56.5552 41.2494 57.0272 40.6669 57.0272Z" fill="#F9F6F9"/>
<path d="M70.9463 6.44581H1.05078V4.74029C1.05078 2.41564 2.93531 0.53125 5.25982 0.53125H66.7373C69.0619 0.53125 70.9463 2.41578 70.9463 4.74029V6.44581Z" fill="#407093"/>
<path d="M66.7377 0.53125H64.0039C66.3286 0.53125 68.2129 2.41578 68.2129 4.74029V6.44581H70.9468V4.74029C70.9468 2.41578 69.0624 0.53125 66.7377 0.53125Z" fill="#365E7D"/>
<path d="M57.2821 11.168H14.7121C14.1505 11.168 13.6953 10.7128 13.6953 10.1512V6.44531H58.2989V10.1512C58.2989 10.7128 57.8436 11.168 57.2821 11.168Z" fill="#ECBE6B"/>
<path d="M55.2969 6.44531V11.168H57.284C57.8457 11.168 58.3008 10.7128 58.3008 10.1512V6.44531H55.2969Z" fill="#EAB14D"/>
<path d="M53.8962 11.168H18.1016L20.502 14.2474C21.1474 15.0755 22.1386 15.5597 23.1886 15.5597H48.8093C49.8591 15.5597 50.8505 15.0755 51.4959 14.2474L53.8962 11.168Z" fill="#80B4FB"/>
<path d="M49.8917 11.168L47.4913 14.2474C46.8459 15.0755 45.8545 15.5597 44.8047 15.5597H48.8094C49.8592 15.5597 50.8506 15.0755 51.496 14.2474L53.8965 11.168H49.8917Z" fill="#61A2F9"/>
<path d="M5.78091 11.1959H2.07148C1.50986 11.1959 1.05469 10.7407 1.05469 10.1791V6.44531H7.94653L6.75594 10.4676C6.62798 10.8996 6.2313 11.1959 5.78091 11.1959Z" fill="#ECBE6B"/>
<path d="M66.2203 11.1959H69.9297C70.4914 11.1959 70.9465 10.7407 70.9465 10.1791V6.44531H64.0547L65.2453 10.4676C65.3731 10.8996 65.7698 11.1959 66.2203 11.1959Z" fill="#ECBE6B"/>
<path d="M23.9843 21.5437C23.4017 21.5437 22.9297 21.0716 22.9297 20.4891V18.8749C22.9297 18.2924 23.4017 17.8203 23.9843 17.8203C24.5669 17.8203 25.0389 18.2924 25.0389 18.8749V20.4891C25.0389 21.0716 24.5667 21.5437 23.9843 21.5437Z" fill="#80B4FB"/>
<path d="M31.9921 21.5437C31.4095 21.5437 30.9375 21.0716 30.9375 20.4891V18.8749C30.9375 18.2924 31.4095 17.8203 31.9921 17.8203C32.5747 17.8203 33.0467 18.2924 33.0467 18.8749V20.4891C33.0467 21.0716 32.5745 21.5437 31.9921 21.5437Z" fill="#80B4FB"/>
<path d="M40.0038 21.5437C39.4213 21.5437 38.9492 21.0716 38.9492 20.4891V18.8749C38.9492 18.2924 39.4213 17.8203 40.0038 17.8203C40.5864 17.8203 41.0584 18.2924 41.0584 18.8749V20.4891C41.0584 21.0716 40.5864 21.5437 40.0038 21.5437Z" fill="#80B4FB"/>
<path d="M48.0116 21.5437C47.4291 21.5437 46.957 21.0716 46.957 20.4891V18.8749C46.957 18.2924 47.4291 17.8203 48.0116 17.8203C48.5942 17.8203 49.0663 18.2924 49.0663 18.8749V20.4891C49.0663 21.0716 48.5942 21.5437 48.0116 21.5437Z" fill="#80B4FB"/>
<path d="M27.9882 25.1569C27.4056 25.1569 26.9336 24.6849 26.9336 24.1023V22.4882C26.9336 21.9056 27.4056 21.4336 27.9882 21.4336C28.5708 21.4336 29.0428 21.9056 29.0428 22.4882V24.1023C29.0428 24.6848 28.5708 25.1569 27.9882 25.1569Z" fill="#80B4FB"/>
<path d="M35.996 25.1569C35.4135 25.1569 34.9414 24.6849 34.9414 24.1023V22.4882C34.9414 21.9056 35.4135 21.4336 35.996 21.4336C36.5786 21.4336 37.0506 21.9056 37.0506 22.4882V24.1023C37.0506 24.6848 36.5786 25.1569 35.996 25.1569Z" fill="#80B4FB"/>
<path d="M44.0077 25.1569C43.4252 25.1569 42.9531 24.6849 42.9531 24.1023V22.4882C42.9531 21.9056 43.4252 21.4336 44.0077 21.4336C44.5903 21.4336 45.0624 21.9056 45.0624 22.4882V24.1023C45.0624 24.6848 44.5903 25.1569 44.0077 25.1569Z" fill="#80B4FB"/>
<path d="M23.1958 24.1617L24.1589 25.9225C24.2233 26.0401 24.32 26.1369 24.4377 26.2013L26.1985 27.1644C26.6849 27.4304 26.6849 28.129 26.1985 28.395L24.4377 29.3581C24.32 29.4225 24.2233 29.5193 24.1589 29.6369L23.1958 31.3977C22.9298 31.8841 22.2312 31.8841 21.9651 31.3977L21.0021 29.6369C20.9377 29.5193 20.8409 29.4225 20.7232 29.3581L18.9624 28.395C18.4761 28.129 18.4761 27.4304 18.9624 27.1644L20.7232 26.2013C20.8409 26.1369 20.9377 26.0401 21.0021 25.9225L21.9651 24.1617C22.2312 23.6753 22.9298 23.6753 23.1958 24.1617Z" fill="#D3EFFB"/>
<path d="M56.563 34.2164L57.5261 35.9771C57.5905 36.0948 57.6872 36.1916 57.8049 36.256L59.5657 37.2191C60.0521 37.4851 60.0521 38.1837 59.5657 38.4497L57.8049 39.4128C57.6872 39.4772 57.5905 39.5739 57.5261 39.6916L56.563 41.4524C56.297 41.9388 55.5984 41.9388 55.3323 41.4524L54.3693 39.6916C54.3049 39.5739 54.2081 39.4772 54.0904 39.4128L52.3296 38.4497C51.8432 38.1837 51.8432 37.4851 52.3296 37.2191L54.0904 36.256C54.2081 36.1916 54.3049 36.0948 54.3693 35.9771L55.3323 34.2164C55.5984 33.73 56.297 33.73 56.563 34.2164Z" fill="#D3EFFB"/>
</g>
<defs>
<clipPath id="clip0_1690_11691">
<rect width="72" height="72" fill="white"/>
</clipPath>
</defs>
</svg>
