<svg width="72" height="72" viewBox="0 0 72 72" fill="none" xmlns="http://www.w3.org/2000/svg">
<path d="M29.6765 18.5436C35.2925 18.5436 40.9908 16.8571 40.9908 13.6273C40.9908 10.408 35.2925 8.71094 29.6765 8.71094C24.0708 8.71094 18.3828 10.408 18.3828 13.6273C18.3828 16.8571 24.0708 18.5436 29.6765 18.5436Z" fill="#3889E0"/>
<path d="M3.5728 57.3536C3.5728 63.2679 15.0415 67.8859 29.6781 67.8859C34.3375 67.8859 38.6781 67.4234 42.422 66.5902C43.5123 67.9989 45.2299 68.9145 47.1535 68.9145H62.3867C65.719 68.9145 68.4346 66.2095 68.4346 62.8872V39.559C68.4346 36.7305 66.4495 34.2826 63.7648 33.6242V32.0607C64.8963 31.9477 65.7911 30.991 65.7911 29.8288V27.9052C65.7911 26.6713 64.7831 25.6633 63.5489 25.6633H55.814C55.7913 12.8324 55.814 13.6627 55.814 13.6288C55.814 7.71451 44.3352 3.08594 29.6884 3.08594C15.0312 3.08594 3.5625 7.71451 3.5625 13.6288C3.5625 71.1215 3.56942 43.0305 3.5728 57.3536ZM14.9797 58.9271C13.7249 58.567 12.5831 58.1763 11.5648 57.7444V24.933C12.028 25.1186 13.7874 25.7285 14.9797 26.0435V58.9271ZM20.4518 60.1099C19.2482 59.9251 18.1169 59.7091 17.0369 59.462V26.5477C18.5694 26.8708 20.1326 27.1096 20.4518 27.165V60.1099ZM25.9236 60.6759C24.7409 60.6141 23.6093 60.5112 22.509 60.3776V27.4321C22.7718 27.4321 24.6414 27.6741 25.9236 27.7099V60.6759ZM31.3957 60.7683C30.8402 60.7789 30.2644 60.7889 29.6884 60.7889C29.1123 60.7889 28.5362 60.7789 27.9808 60.7683V27.7922H31.3957V60.7683ZM36.8575 60.3876C35.7671 60.5112 34.6253 60.6141 33.4528 60.6759V27.7099C34.0925 27.6939 36.2586 27.4952 36.8575 27.4321V60.3876ZM42.3296 44.8767C42.2796 44.9796 41.1362 46.2167 41.1362 48.4666V59.7191C40.4266 59.8633 39.6758 59.9969 38.9146 60.1099V27.165C39.2192 27.1134 40.7507 26.8988 42.3296 26.5477V44.8767ZM54.2093 35.5065C54.3129 35.5065 55.0638 35.5065 54.9602 35.5065C55.554 35.5065 55.9888 35.031 55.9888 34.478V32.0713H61.7077V34.4986C61.7077 35.0334 62.119 35.4759 62.6539 35.5271C64.7422 35.6919 66.3774 37.4713 66.3774 39.559V62.8872C66.3774 65.078 64.5877 66.8574 62.3867 66.8574H47.1535C44.9538 66.8574 43.1934 65.0695 43.1934 62.8872C43.1934 61.1442 43.1934 53.0355 43.1934 48.4666C43.1934 47.7222 43.4046 46.9891 43.79 46.3477C43.8716 46.2436 51.2791 36.7852 50.8459 37.3377C51.6317 36.1409 52.9249 35.5065 54.2093 35.5065ZM44.3867 42.254V26.0435C45.6003 25.7145 46.7422 25.3444 47.8014 24.9431V37.9032L44.3867 42.254ZM53.7568 32.0507V33.47C52.2449 33.583 50.8459 34.252 49.8585 35.3112V24.0587C51.4528 23.2767 52.7695 22.4023 53.7568 21.4561V25.6839C52.6564 25.8175 51.8027 26.7637 51.8027 27.9052V29.8288C51.8027 30.9704 52.6564 31.9166 53.7568 32.0507ZM29.6884 5.14308C43.8724 5.14308 53.7568 9.61747 53.7568 13.6288C53.7568 20.0348 33.9803 22.3426 27.6209 22.0839C21.5762 21.8256 5.61964 19.6658 5.61964 13.6288C5.61964 9.61747 15.5043 5.14308 29.6884 5.14308ZM5.61964 21.4561H5.62994C6.78576 22.523 8.07359 23.3564 9.50767 24.0481V56.767C7.00831 55.3889 5.61964 53.8049 5.61964 52.3032V21.4561Z" fill="#3889E0"/>
<path d="M52.9229 40.0539C47.4647 46.7745 46.7861 47.6062 46.8133 47.5728C46.4184 48.1603 46.2578 48.7527 46.2578 49.3316V60.8001C46.2578 62.5077 47.6465 63.8964 49.3538 63.8964H61.2236C62.9309 63.8964 64.3196 62.5077 64.3196 60.8001V41.7821C64.3196 40.0745 62.9309 38.6758 61.2236 38.6758C61.0788 38.6758 55.3531 38.6758 55.4944 38.6758C54.4266 38.6758 53.4711 39.2323 52.9229 40.0539ZM55.0521 49.517C55.4383 48.9265 56.3194 48.9148 56.7083 49.517C57.7162 51.0086 59.2897 53.5489 59.2897 54.8246C59.2897 56.7064 57.7675 58.2287 55.8854 58.2287C54.1053 58.2287 52.5171 56.8339 52.4704 54.8758V54.8246C52.4704 53.468 54.3159 50.5784 55.0521 49.517Z" fill="#3889E0"/>
</svg>
