<?xml version="1.0" encoding="UTF-8"?>
<svg id="Layer_2" data-name="Layer 2" xmlns="http://www.w3.org/2000/svg" viewBox="0 0 60.82 32.35">
  <defs>
    <style>
      .cls-1 {
        fill: #ea3e4a;
      }

      .cls-1, .cls-2 {
        stroke-width: 0px;
      }

      .cls-2 {
        fill: #29357d;
      }
    </style>
  </defs>
  <g id="Layer_1-2" data-name="Layer 1">
    <g>
      <g>
        <polygon class="cls-2" points="55.87 10.15 55.87 32.29 60.82 32.29 60.82 7.48 55.87 10.15"/>
        <rect class="cls-1" x="44.13" y="27.68" width="3.82" height="3.82" transform="translate(-7.44 41.22) rotate(-45)"/>
        <polygon class="cls-1" points="34.24 28.63 32.5 26.89 29.81 29.59 32.5 32.29 34.24 30.55 35.98 32.29 38.68 29.59 35.98 26.89 34.24 28.63"/>
        <rect class="cls-1" x="7.9" y="18.07" width="3.82" height="3.82" transform="translate(-11.25 12.79) rotate(-45)"/>
        <path class="cls-2" d="M39.64,12.58h0c0,2.73,2.21,4.94,4.94,4.94h3.88v2.47h-9.78v-2.47h-4.94v2.47h-13.97V7.58h-.02l-4.92,2.66v14.7h-4.94v2.47h-4.94V10.24L.02,7.58h-.02v24.77h11.87l2.96-2.96v2.96h12.36v-7.41h8.54l2.96-2.96v2.96h14.72v-12.36h-13.76ZM22.24,27.41h-7.41v-2.47h7.41v2.47Z"/>
        <polygon class="cls-2" points="27.18 10.24 22.26 7.58 22.24 7.58 22.24 17.53 27.18 17.53 27.18 10.24"/>
      </g>
      <path class="cls-1" d="M9.49,12.5l-.3-.3c-.66-.66-.48-1.66.06-2.2.92-.92,1.93-.44,2.39.02.13.13,1.1,1.22.19,2.13l-.1.1c-.1.1-.27.28-.58.6-1.02,1.02-2.5,1.24-3.68.24.02-.52.05-.68.07-1.23.47.41,1.33.77,1.95.65ZM11.04,11.24c.13-.13.18-.41-.02-.62-.26-.26-.64-.15-.89.1s-.33.57-.08.82l.35.35.65-.65Z"/>
      <path class="cls-1" d="M30.24,12.4l13.81-4.82.34,1.09-13.81,4.82-.34-1.08Z"/>
      <path class="cls-2" d="M60.16,6.28c-.45.45-1.02.67-1.73.67-.65,0-1.15-.23-1.49-.67-.03-.04-.07-.06-.13-.05h-1.36v-1.02h1.05c0-.22.04-.44.12-.67.09-.25.21-.47.36-.64.33-.39.84-.6,1.54-.62h.06c.59,0,1.11.23,1.57.69.25.29.4.71.42,1.24-.02.44-.16.79-.43,1.07ZM58.04,4.24c-.11.07-.21.18-.28.32-.08.16-.13.33-.13.53,0,.16.03.33.1.5.14.34.42.51.82.51.13,0,.23-.01.32-.04.1-.03.21-.12.32-.26.16-.19.24-.42.24-.67,0-.11-.02-.22-.05-.33-.16-.48-.42-.72-.79-.72-.04,0-.07,0-.11.01-.13,0-.28.06-.45.17Z"/>
      <g>
        <path class="cls-2" d="M35.26,6.23h-.89c-.47,0-.86-.1-1.17-.3-.33-.23-.56-.49-.67-.77-.22.13-.38.23-.48.28-.18.11-.47.16-.86.16-.42,0-.79-.07-1.1-.21s-.55-.38-.71-.72c-.14-.29-.22-.61-.22-.97,0-.23.03-.44.09-.63.11-.38.3-.69.56-.94.16-.15.39-.31.71-.49.35-.16.83-.24,1.43-.23h1.79v2.43s0,.19,0,.57c.05.51.28.78.7.8h.82v1.02ZM32.47,2.17c-.39-.02-.7,0-.93.04-.46.1-.76.3-.9.61-.1.22-.16.46-.16.71,0,.23.04.43.13.6.1.19.24.34.41.46.19.13.37.18.56.16.31-.04.56-.2.73-.48.12-.19.17-.42.17-.69,0-.09,0-.56-.01-1.4Z"/>
        <path class="cls-2" d="M42.13,5.21h.88v1.02h-2.08s-.03,0-.05,0h-2.19s-.04,0-.07,0h-2.25v-.02c-.05,0-.1.01-.16.02h-1.77v-1.02h1.27c.38.01.58-.15.6-.48v-2.08h1.18v2.34c0,.08,0,.16-.01.23h.65c.38.01.58-.15.6-.48v-2.08h1.17v2.34c0,.08,0,.16-.01.23h.5c.38.01.58-.15.6-.48v-2.08h1.18v2.34c0,.08,0,.16-.01.23Z"/>
        <path class="cls-2" d="M47.78,5.21h.5c.38.01.58-.15.6-.48v-2.08h1.18v2.34c0,.52-.21.89-.63,1.09-.17.09-.39.14-.63.16h-2.19s-.04,0-.07,0h-2.25v-.02c-.05,0-.1.01-.16.02h-1.77v-1.02h1.27c.38.01.58-.15.6-.48v-2.08h1.18v2.34c0,.08,0,.16-.01.23h.64c.38.01.58-.15.6-.48v-2.08h1.17v2.34c0,.08,0,.16-.01.23Z"/>
        <path class="cls-2" d="M53.85,6.06c-.29.12-.61.17-.96.17-.65,0-1.16-.21-1.53-.64-.23-.26-.36-.63-.39-1.1,0-.22.04-.44.12-.67.09-.25.21-.47.36-.64.33-.39.84-.59,1.54-.62.61-.02,1.15.21,1.63.69.25.29.4.71.42,1.24,0,.04,0,.07,0,.11v.6s.72,0,.72,0v1.03s-.76,0-.76,0c-.08.37-.27.69-.57.97-.41.33-.99.47-1.74.44v-.79c.06,0,.11.01.16.01.31,0,.58-.11.81-.34.1-.12.17-.27.21-.46ZM52.5,3.52c-.11.07-.21.18-.28.32-.08.16-.12.33-.12.52,0,.16.03.33.1.5.14.34.42.51.82.51.13,0,.23-.01.32-.04.1-.03.21-.12.32-.26.16-.2.24-.42.24-.67,0-.11-.02-.22-.05-.33-.12-.47-.38-.71-.79-.72-.04,0-.07,0-.11.01-.13,0-.28.06-.45.17Z"/>
        <path class="cls-1" d="M53.52,1.15v.38h-1.69v-.38h.32c-.04-.08-.07-.16-.07-.23-.02-.1-.01-.2.01-.3.06-.19.15-.33.28-.41.12-.08.29-.12.49-.11.1,0,.19.02.26.05.07.03.14.07.2.13.1.09.17.18.2.26l-.31.18c-.06-.09-.13-.17-.23-.23-.06-.03-.13-.04-.2-.04-.09,0-.17.03-.24.1-.09.08-.12.19-.11.33,0,.08.05.16.14.25h.94Z"/>
        <rect class="cls-1" x="31.04" width="1" height=".82"/>
        <rect class="cls-1" x="32.7" width="1" height=".82"/>
      </g>
    </g>
  </g>
</svg>