<?xml version="1.0" encoding="UTF-8"?>
<svg id="Layer_2" data-name="Layer 2" xmlns="http://www.w3.org/2000/svg" viewBox="0 0 1635.39 1657.87">
  <defs>
    <style>
      .cls-1 {
        fill: #e82343;
        stroke-width: 0px;
      }
    </style>
  </defs>
  <g id="Layer_2-2" data-name="Layer 2">
    <g>
      <path class="cls-1" d="M1161.69,1450.46c8.81-1.92,16.87-3.49,24.83-5.46,40.84-10.13,78.52-27.14,113.06-51.31,57.09-39.94,92.84-94.35,110.85-161.12,10.29-38.15,15.43-77.03,16.77-116.45.44-13.05.6-26.11.6-39.17.03-356.73.02-713.45.02-1070.18V0h207.33c.08,1.1.24,2.21.24,3.32,0,362.1,0,724.2,0,1086.3,0,36.75-1.81,73.42-6.68,109.85-8.49,63.4-25.03,124.52-53.85,181.91-24.62,49.03-56,93.24-95.35,131.62-44.1,43.01-95.27,75.18-151.92,98.96-45.06,18.91-91.85,31.73-140.15,38.59-24.23,3.44-48.71,5.67-73.16,6.93-19.95,1.03-40.01-.24-60.02-.41-2.31-.02-3.14-.92-3.07-3.08.05-1.3,0-2.61,0-3.92,0-48.64,0-97.28,0-145.91v-486.92c0-263.79.08-527.59-.08-791.38-.03-44.15-20.51-76.78-58.76-98.23-14.82-8.31-31.2-12.02-48.11-12.04-152.01-.13-304.03-.43-456.04.12-51.83.19-101.5,12.07-148.75,33.66-44.16,20.18-83.54,47.2-117.62,81.83-31.35,31.86-56.25,68.19-75.33,108.59-16.1,34.11-27.23,69.75-32.04,107.13-2.35,18.23-3.86,36.7-3.91,55.07-.32,136.33-.17,272.66-.18,408.99,0,7.09.9,6.5-6.55,6.51-15.83.02-31.65.04-47.48,0-31.18-.08-56.16-25.1-56.16-56.24,0-121.23-.47-242.47.16-363.7.42-79.37,19.23-154.53,56.01-225.05,21.27-40.78,47.39-78.08,78.97-111.57,50.51-53.56,110.32-93.3,178.53-120.68,38.18-15.33,77.65-25.72,118.45-30.6,19.41-2.32,39.04-3.92,58.58-3.97,151.57-.32,303.14-.49,454.71-.01,57.16.18,106.25,21.54,147.38,61.23,20.26,19.55,36.87,41.68,48.81,67.27,11.75,25.21,17.65,51.81,19.28,79.44.39,6.65.61,13.32.61,19.98.03,250.45.03,500.9.03,751.35v465.5Z"/>
      <path class="cls-1" d="M940.06,1656.3c-21.67,0-42.49,1.24-63.1-.32-25.13-1.89-46.84-28.75-46.79-53.09.37-194.99.24-389.98.2-584.97-.05-224.9-.16-449.79-.25-674.69q0-6.57-6.71-6.58c-109.48,0-218.95-.28-328.42.13-44.38.17-82.52,16.5-114.14,47.93-23.82,23.69-39.99,51.54-45.91,84.72-2.13,11.93-3.16,24.22-3.18,36.34-.23,118.62-.14,237.24-.14,355.86,0,30.03-23.22,54.69-53.24,55.71-18.13.62-36.29.12-54.44.11-.56,0-1.13-.16-2.15-.32-.09-1.54-.27-3.08-.27-4.62-.01-137.06-.15-274.12.06-411.18.07-49.39,10.91-96.28,36.65-138.86,32.52-53.8,77.37-93.72,136.09-117.18,30.77-12.29,62.95-18.34,96.06-18.38,147.95-.16,295.9-.07,443.85-.07q5.83,0,5.84,6.02c0,250.02,0,500.04,0,750.05,0,158.53,0,317.05,0,475.58,0,64.01,0,128.01,0,192.02v5.76Z"/>
      <path class="cls-1" d="M645.92,1273.68c-.18,136.19-106.9,244.12-240.07,247.37-137.29,3.35-249.34-104.2-252.11-240.22-2.83-138.82,106.33-250.5,244.1-251.92,135.61-1.4,246.46,107.97,248.09,244.77Z"/>
    </g>
  </g>
</svg>