<?xml version="1.0" encoding="utf-8"?>
<!-- Generator: Adobe Illustrator 28.3.0, SVG Export Plug-In . SVG Version: 6.00 Build 0)  -->
<svg version="1.1" id="Layer_1" xmlns="http://www.w3.org/2000/svg" xmlns:xlink="http://www.w3.org/1999/xlink" x="0px" y="0px"
	 viewBox="0 0 255.38 236.45" style="enable-background:new 0 0 255.38 236.45;" xml:space="preserve">
<style type="text/css">
	.st0{fill:#E5E6E6;}
	.st1{fill:#F3F3F3;}
	.st2{fill:#2D193E;}
	.st3{fill:none;}
	.st4{fill:#F2F3F1;}
	.st5{fill:#F5BB18;}
	.st6{fill:#2C193F;}
	.st7{fill:#F04B52;}
	.st8{fill:#F8BC16;}
	.st9{fill:#F6F6F6;}
	.st10{fill:#08B2E1;}
</style>
<g>
	<path class="st1" d="M162.02,33.22c3.28,0,6.33,1.09,8.78,3.16c0.22,0.18,0.43,0.38,0.63,0.57l0,0l5.55,5.56
		c0.24,0.22,0.46,0.45,0.68,0.68l0.04,0.04l0,0c2.37,2.57,3.67,6.01,3.7,9.85c0.01,1.33,0.02,2.66,0.02,4
		c2.43-1.22,5.06-1.85,7.68-1.85c0.87,0,1.74,0.07,2.6,0.21c2.92,0.49,5.39,1.83,7.27,3.74l0.02,0l5.27,5.28l-0.01,0
		c3.13,2.9,4.76,7.33,4.16,12.26c-0.6,4.93-3.64,9.64-7.71,12.65c0.2,0.32,0.39,0.66,0.56,1c0.95,0.48,1.85,1.07,2.67,1.78
		c3,2.61,4.67,6.58,4.59,10.89c-0.15,8.19-6.75,15.84-15.11,17.6l2.15,4.99c0.5-0.09,1-0.17,1.49-0.27
		c0.43-0.08,0.84-0.12,1.23-0.12c1.12,0,2.09,0.33,2.89,1c0.08,0.07,0.16,0.14,0.23,0.21l0,0l0.04,0.04
		c0.01,0.01,0.02,0.02,0.04,0.04l5.39,5.41c1.66,1.37,1.65,3.43,1.65,4.21c-0.01,7.45-0.02,7.83-0.16,14.1l-0.04,1.92
		c-0.09,4.18-1.81,8.17-4.57,11.29c0.24,0.2,0.48,0.4,0.73,0.6c0.64,0.52,1.28,1.03,1.9,1.57c0.6,0.51,0.97,1.06,1.23,1.46
		c0.06,0.09,0.12,0.18,0.19,0.27l1.44,1.92l-1.24,2.05c-0.08,0.13-0.15,0.26-0.22,0.38c-0.22,0.4-0.5,0.9-0.92,1.4
		c-0.64,0.78-1.3,1.55-1.96,2.32c-0.61,0.71-1.21,1.42-1.81,2.13c-1.3,1.56-2.78,2.19-4.18,2.19c-1.2,0-2.33-0.46-3.23-1.2
		l-1.03-0.85c-0.95-0.78-1.91-1.56-2.86-2.35c-0.5-0.41-0.87-0.85-1.15-1.29c-2.88,4.75-8.25,8.36-15.08,9.74
		c-0.21,0.05-0.43,0.1-0.67,0.14c-7.45,1.32-7.83,1.38-14.08,2.36l-1.89,0.3c-0.82,0.13-1.64,0.19-2.44,0.19
		c-3.32,0-6.39-1.11-8.81-3.21c-0.45-0.39-0.85-0.82-1.24-1.26l0,0.02l-4.46-4.45c0,0,0,0,0,0c-1.01-0.88-1.87-1.92-2.57-3.07
		c-9.97,1.78-21,3.75-24.73,4.41c-0.61,0.11-1.33,0.23-2.07,0.23c-0.34,0-0.68-0.03-1.03-0.09c0,4,0,7.5-0.01,10.52
		c-0.01,4.01-1.44,5.69-5.46,6.42c-6.54,1.18-12.62,2.26-19.17,3.43c-0.46,0.08-1.1,0.19-1.8,0.19c-0.96,0-2.05-0.21-3.01-0.99
		c-1.46-1.19-1.69-2.92-1.74-4.08c-2.86,4.24-7.43,7.43-12.42,8.18c-0.81,0.12-1.61,0.18-2.39,0.18c0,0,0,0,0,0
		c-3.36,0-6.46-1.1-8.93-3.19c-0.37-0.31-0.72-0.65-1.05-0.99l0,0l-5.56-5.55l0-0.02c-2.36-2.43-3.69-5.68-3.75-9.3
		c-0.03-1.71-0.07-3.23-0.11-4.56c-0.08-2.59-0.13-4.46-0.02-5.87c0.22-2.88,1.38-4.22,2.61-4.81l-0.61-0.51
		c-1.45-1.19-1.84-2.56-1.92-3.5c-0.12-1.44,0.41-2.84,1.55-4.15c0.5-0.57,0.98-1.14,1.47-1.72l-1.1-0.91
		c-1.45-1.19-1.84-2.56-1.92-3.5c-0.12-1.44,0.41-2.84,1.55-4.15c0.6-0.69,1.19-1.39,1.78-2.1c0.04-0.05,0.08-0.09,0.12-0.14
		c-0.64-0.17-1.23-0.46-1.74-0.89c-1.15-0.96-1.73-2.37-1.73-4.18l0-1.34c0.03-10.06,0.03-10.46-0.01-21.28
		c-0.01-3.24,1.85-5.38,5.09-5.9c1.42-0.22,2.89-0.5,4.31-0.76c0.69-0.13,1.37-0.25,2.06-0.38c0.58-0.1,1.28-0.23,2.03-0.23
		c0.53,0,1.08,0.06,1.62,0.24c0.21-0.41,0.49-0.83,0.85-1.26c0.75-0.88,1.5-1.76,2.25-2.64l1.54-1.8c0.79-0.93,1.68-1.56,2.65-1.88
		c-0.12-0.21-0.23-0.43-0.34-0.65c-0.9-0.46-1.75-1.01-2.53-1.67c-2.94-2.49-4.59-6.1-4.66-10.17c-0.09-5.28-0.07-10.66-0.05-15.85
		c0.01-2.79,0.02-5.59,0.01-8.38c-0.01-3.06,1.82-5.2,4.88-5.71c1.46-0.24,2.92-0.51,4.38-0.77c-1.09-1.07-1.43-2.25-1.5-3.08
		c-0.09-0.98,0.09-2.48,1.44-4.07c0.75-0.89,1.51-1.77,2.26-2.66l1.52-1.79c1.1-1.29,2.38-2.01,3.81-2.12
		c0.12-0.01,0.24-0.01,0.37-0.01c0.92,0,2.16,0.26,3.4,1.33c0.57,0.49,1.16,0.96,1.74,1.44c0.64,0.52,1.28,1.04,1.91,1.57
		c0.6,0.51,0.97,1.06,1.24,1.46c0.06,0.09,0.12,0.18,0.19,0.27l0.86,1.15c0.5,0.42,1,0.83,1.5,1.24c0.05,0.04,0.11,0.09,0.16,0.13
		c0-3.08,0-5.72,0-7.43c0-3.75,1.46-5.51,5.19-6.29c0.9-0.19,1.8-0.37,2.7-0.55c1.34-0.27,2.68-0.54,4.02-0.83
		c0.53-0.12,1.02-0.17,1.47-0.17c1.44,0,2.44,0.53,3.07,1.04c0.72,0.58,1.55,1.63,1.73,3.41c2.79-3.24,6.68-5.58,11.02-6.27
		c0.83-0.13,1.64-0.2,2.45-0.2c3.28,0,6.33,1.09,8.78,3.16c1.34,1.13,2.41,2.5,3.21,4.04c0.88,0.45,1.71,1.01,2.49,1.66
		c0.76,0.64,1.43,1.37,2.02,2.15c0.1-0.02,0.2-0.04,0.3-0.05c1.46-0.25,2.84-0.49,4.23-0.78c0.5-0.1,0.96-0.15,1.39-0.15
		c0.32,0,0.62,0.03,0.9,0.07c0.35-8.27,7.06-15.73,15.42-17.06C160.4,33.29,161.22,33.22,162.02,33.22 M162.02,29.81
		C162.02,29.81,162.02,29.81,162.02,29.81c-0.99,0-1.99,0.08-2.99,0.24c-8.95,1.43-16.18,8.56-17.91,17.18
		c-0.81,0.17-1.63,0.32-2.46,0.47c-0.37-0.38-0.75-0.73-1.14-1.06c-0.69-0.58-1.42-1.11-2.19-1.57c-0.95-1.57-2.13-2.96-3.51-4.13
		c-3.06-2.59-6.86-3.97-10.98-3.97c-0.99,0-1.99,0.08-2.99,0.24c-3.43,0.55-6.69,1.96-9.5,4.08c-0.19-0.18-0.37-0.35-0.55-0.49
		c-1.45-1.18-3.25-1.8-5.21-1.8c-0.71,0-1.45,0.08-2.2,0.25c-1.31,0.29-2.65,0.56-3.95,0.82c-0.91,0.18-1.82,0.36-2.72,0.55
		c-5.05,1.05-7.63,3.95-7.88,8.84c-0.12-0.09-0.23-0.19-0.34-0.27c-0.6-0.48-1.14-0.92-1.66-1.37c-1.64-1.41-3.58-2.15-5.62-2.15
		c-0.21,0-0.42,0.01-0.63,0.02c-2.33,0.18-4.46,1.33-6.14,3.31l-1.52,1.78l-0.06,0.07c-0.74,0.86-1.48,1.73-2.21,2.59
		c-2.11,2.49-2.38,4.95-2.24,6.58c0.01,0.06,0.01,0.12,0.02,0.18c-0.02,0-0.04,0.01-0.06,0.01c-4.71,0.78-7.74,4.35-7.73,9.08
		c0.01,2.66,0,5.32-0.01,7.98l0,0.37c-0.02,5.23-0.04,10.61,0.05,15.92c0.08,4.88,2.02,9.25,5.48,12.36l-1.31,1.54
		c-0.7,0.82-1.4,1.64-2.09,2.46c-0.01,0-0.02,0-0.03,0c-1.05,0-1.96,0.16-2.63,0.28c-0.69,0.12-1.39,0.25-2.08,0.38
		c-1.41,0.26-2.85,0.53-4.22,0.74c-4.93,0.78-7.98,4.33-7.97,9.27c0.03,10.87,0.03,11.26,0.01,21.26l0,1.34
		c-0.01,2.65,0.87,4.49,1.88,5.72c-1.38,1.84-2.02,3.91-1.85,6.01c0.13,1.61,0.74,3.12,1.74,4.41c-1.31,1.8-1.91,3.81-1.74,5.86
		c0.11,1.31,0.53,2.56,1.22,3.67c-0.66,1.15-1.16,2.65-1.31,4.61c-0.12,1.6-0.06,3.54,0.02,6.23c0.04,1.34,0.08,2.83,0.11,4.51
		c0.07,4.36,1.69,8.42,4.55,11.44c0.07,0.08,0.13,0.15,0.21,0.23l5.53,5.52c0.41,0.43,0.84,0.84,1.29,1.21
		c3.09,2.61,6.94,3.99,11.13,3.99c0.96,0,1.93-0.07,2.9-0.22c3.95-0.59,7.8-2.5,10.95-5.32c0.17,0.17,0.35,0.33,0.55,0.49
		c1.43,1.16,3.17,1.75,5.16,1.75c1,0,1.84-0.15,2.39-0.25c6.55-1.17,12.63-2.25,19.17-3.43c5.62-1.01,8.25-4.11,8.26-9.76
		c0-2.18,0.01-4.59,0.01-7.27c0.1-0.02,0.19-0.03,0.28-0.05c3.48-0.62,13.24-2.36,22.62-4.04c0.54,0.66,1.13,1.27,1.76,1.83
		l4.38,4.38c0.02,0.02,0.05,0.04,0.07,0.07c0.46,0.52,0.9,0.95,1.34,1.34c3.04,2.65,6.86,4.05,11.05,4.05
		c0.98,0,1.97-0.08,2.97-0.24l1.89-0.3c6.27-0.99,6.65-1.04,14.15-2.37c0.27-0.05,0.54-0.1,0.81-0.17
		c5.97-1.22,11.15-4.05,14.75-7.98c0.48,0.39,0.96,0.78,1.43,1.18l1.03,0.85c1.55,1.27,3.47,1.98,5.4,1.98
		c2.55,0,4.96-1.22,6.8-3.42c0.58-0.7,1.17-1.39,1.76-2.08c0.75-0.88,1.37-1.61,2.01-2.37c0.62-0.75,1.01-1.45,1.27-1.92l0.03-0.06
		c0.04-0.07,0.08-0.14,0.12-0.22l1.24-2.04c0.72-1.19,0.65-2.7-0.19-3.81l-1.44-1.92c-0.02-0.03-0.04-0.06-0.06-0.09
		c0,0-0.02-0.03-0.02-0.03c-0.34-0.5-0.9-1.33-1.84-2.15c-0.06-0.05-0.12-0.1-0.18-0.15c2.07-3.25,3.22-6.94,3.3-10.65l0.04-1.92
		c0.14-6.31,0.14-6.69,0.16-14.16c0-2.87-0.92-5.13-2.74-6.72l-5.29-5.31l-0.05-0.05l-0.03-0.03c-0.06-0.06-0.11-0.11-0.17-0.16
		c-0.1-0.09-0.19-0.18-0.3-0.26c-1.04-0.86-2.27-1.43-3.61-1.66c7.09-3.68,12.04-11.01,12.19-18.86c0.1-5.32-2-10.25-5.76-13.53
		c-0.1-0.09-0.21-0.18-0.31-0.26c3.24-3.44,5.39-7.79,5.93-12.19c0.71-5.81-1.13-11.27-5.05-15.01c-0.02-0.02-0.05-0.05-0.07-0.07
		l-5.27-5.28c-0.08-0.08-0.16-0.15-0.24-0.22c-2.41-2.36-5.48-3.91-8.9-4.48c-1.04-0.17-2.1-0.26-3.17-0.26
		c-1.44,0-2.88,0.16-4.31,0.48c-0.19-4.29-1.77-8.26-4.47-11.26c-0.06-0.07-0.12-0.14-0.19-0.21c-0.24-0.26-0.5-0.51-0.76-0.76
		l-5.51-5.52c-0.05-0.05-0.09-0.09-0.14-0.13c-0.24-0.23-0.47-0.44-0.7-0.63C169.94,31.19,166.14,29.81,162.02,29.81L162.02,29.81z"
		/>
	<path class="st6" d="M207.58,167.37c-0.07-0.09-0.13-0.18-0.19-0.27c-0.27-0.4-0.64-0.94-1.23-1.46c-0.62-0.54-1.26-1.05-1.9-1.57
		c-0.25-0.2-0.49-0.4-0.73-0.6c2.75-3.12,4.48-7.11,4.57-11.29l0.04-1.92c0.14-6.27,0.14-6.64,0.16-14.1c0-0.78,0-2.84-1.65-4.21
		l-5.39-5.41c-0.01-0.01-0.02-0.02-0.04-0.04l-0.04-0.04l0,0c-0.08-0.07-0.15-0.14-0.23-0.21c-1.08-0.9-2.47-1.19-4.12-0.88
		c-0.5,0.09-1,0.18-1.49,0.27l-2.15-4.99c8.36-1.76,14.96-9.41,15.11-17.6c0.08-4.31-1.59-8.28-4.59-10.89
		c-0.82-0.71-1.72-1.31-2.67-1.78c-0.17-0.34-0.36-0.68-0.56-1c4.07-3.01,7.1-7.72,7.71-12.65c0.6-4.93-1.03-9.36-4.16-12.26l0.01,0
		l-5.27-5.28l-0.02,0c-1.88-1.92-4.36-3.26-7.27-3.74c-3.45-0.58-7.04,0.02-10.28,1.64c0-1.34-0.01-2.67-0.02-4
		c-0.03-3.84-1.33-7.28-3.7-9.85l0,0l-0.04-0.04c-0.22-0.23-0.44-0.46-0.68-0.68l-5.55-5.56l0,0c-0.2-0.2-0.41-0.39-0.63-0.57
		c-3.05-2.58-7.03-3.63-11.23-2.96c-8.36,1.34-15.07,8.8-15.42,17.06c-0.64-0.11-1.4-0.11-2.28,0.08c-1.39,0.29-2.77,0.53-4.23,0.78
		c-0.1,0.02-0.2,0.03-0.3,0.05c-0.59-0.78-1.26-1.51-2.02-2.15c-0.77-0.65-1.6-1.21-2.49-1.66c-0.8-1.54-1.88-2.9-3.21-4.04
		c-3.05-2.58-7.03-3.63-11.23-2.96c-4.33,0.69-8.23,3.03-11.02,6.27c-0.18-1.78-1.01-2.82-1.73-3.41c-0.82-0.67-2.28-1.36-4.54-0.87
		c-1.34,0.29-2.68,0.56-4.02,0.83c-0.9,0.18-1.8,0.36-2.7,0.55c-3.73,0.78-5.18,2.54-5.19,6.29c0,1.71,0,4.35,0,7.43
		c-0.05-0.04-0.11-0.09-0.16-0.13c-0.51-0.41-1.01-0.82-1.5-1.24l-0.86-1.15c-0.07-0.09-0.13-0.18-0.19-0.27
		c-0.27-0.4-0.64-0.95-1.24-1.46c-0.63-0.54-1.27-1.06-1.91-1.57c-0.59-0.47-1.17-0.95-1.74-1.44c-1.42-1.22-2.83-1.39-3.77-1.32
		c-1.42,0.11-2.71,0.82-3.81,2.12l-1.52,1.79c-0.75,0.88-1.51,1.77-2.26,2.66c-1.35,1.59-1.53,3.1-1.44,4.07
		c0.08,0.84,0.41,2.01,1.5,3.08c-1.46,0.26-2.92,0.53-4.38,0.77c-3.06,0.51-4.89,2.64-4.88,5.71c0.01,2.79,0,5.58-0.01,8.38
		c-0.02,5.2-0.04,10.57,0.05,15.85c0.07,4.07,1.73,7.68,4.66,10.17c0.78,0.66,1.63,1.22,2.53,1.67c0.11,0.22,0.22,0.44,0.34,0.65
		c-0.97,0.32-1.86,0.94-2.65,1.88l-1.54,1.8c-0.75,0.88-1.5,1.76-2.25,2.64c-0.36,0.43-0.64,0.85-0.85,1.26
		c-1.31-0.43-2.66-0.19-3.65-0.01c-0.69,0.12-1.37,0.25-2.06,0.38c-1.42,0.26-2.89,0.53-4.31,0.76c-3.24,0.51-5.1,2.66-5.09,5.9
		c0.03,10.82,0.03,11.22,0.01,21.28l0,1.34c0,1.82,0.58,3.22,1.73,4.18c0.51,0.43,1.1,0.71,1.74,0.89
		c-0.04,0.05-0.08,0.09-0.12,0.14c-0.59,0.7-1.18,1.41-1.78,2.1c-1.15,1.31-1.67,2.71-1.55,4.15c0.08,0.94,0.47,2.31,1.92,3.5
		l1.1,0.91c-0.48,0.58-0.97,1.15-1.47,1.72c-1.15,1.31-1.67,2.71-1.55,4.15c0.08,0.94,0.47,2.31,1.92,3.5l0.61,0.51
		c-1.23,0.59-2.4,1.93-2.61,4.81c-0.11,1.41-0.05,3.28,0.02,5.87c0.04,1.33,0.08,2.85,0.11,4.56c0.06,3.62,1.39,6.88,3.75,9.3
		l0,0.02l5.56,5.55l0,0c0.33,0.35,0.68,0.68,1.05,0.99c2.47,2.09,5.58,3.19,8.94,3.19c0.79,0,1.58-0.06,2.39-0.18
		c4.99-0.75,9.55-3.94,12.42-8.18c0.06,1.16,0.28,2.89,1.74,4.08c0.96,0.78,2.05,0.99,3.01,0.99c0.7,0,1.34-0.11,1.8-0.19
		c6.54-1.16,12.62-2.25,19.17-3.43c4.02-0.72,5.45-2.4,5.46-6.42c0.01-3.03,0.01-6.52,0.01-10.52c1.1,0.21,2.21,0.02,3.1-0.14
		c3.73-0.66,14.76-2.63,24.73-4.41c0.69,1.15,1.55,2.19,2.57,3.07c0,0,0,0,0,0l4.46,4.45l0-0.02c0.39,0.45,0.79,0.87,1.24,1.26
		c2.42,2.11,5.48,3.21,8.81,3.21c0.8,0,1.62-0.06,2.44-0.19l1.89-0.3c6.25-0.98,6.63-1.04,14.08-2.36c0.24-0.04,0.46-0.09,0.67-0.14
		c6.83-1.38,12.2-4.99,15.08-9.74c0.27,0.44,0.64,0.87,1.15,1.29c0.95,0.78,1.9,1.56,2.86,2.35l1.03,0.85
		c0.9,0.74,2.04,1.2,3.23,1.2c1.4,0,2.88-0.63,4.18-2.19c0.59-0.72,1.2-1.42,1.81-2.13c0.66-0.77,1.32-1.54,1.96-2.32
		c0.42-0.51,0.7-1,0.92-1.4c0.07-0.12,0.14-0.25,0.22-0.38l1.24-2.05L207.58,167.37z"/>
	<g>
		<path class="st3" d="M91.72,111.04C91.72,111.04,91.71,111.04,91.72,111.04c-0.01,0.01,0,0.02,0,0.03
			C91.72,111.06,91.72,111.05,91.72,111.04z"/>
		<path class="st3" d="M91.71,112.51c0.01-0.12,0.01-0.24,0.01-0.36l-0.32,3.82C91.51,114.82,91.61,113.67,91.71,112.51z"/>
		<path class="st3" d="M117.39,55.76c0.02-0.05,0.05-0.1,0.08-0.15C117.44,55.65,117.41,55.7,117.39,55.76z"/>
		<path class="st3" d="M119.45,55.12c-0.03,0-0.06,0.01-0.09,0.01c0.05,0.06,0.1,0.13,0.13,0.21
			C119.48,55.27,119.46,55.2,119.45,55.12z"/>
		<path class="st3" d="M172.78,103.56l0-4.2c0,0.91,0,3.57-0.01,4.22c0.99-0.22,2.04-0.46,3.13-0.7L172.78,103.56z"/>
		<path class="st3" d="M90.45,126.73l-4.16,0.75c0,0.01,0,0.02,0,0.03L90.45,126.73z"/>
		<path class="st3" d="M186.13,96.39c-0.14,0.03-0.27,0.06-0.41,0.1l0.49-0.11C186.18,96.38,186.16,96.38,186.13,96.39z"/>
		<path class="st7" d="M198.78,146.42c0.17-8.14,0.18-7.83,0.2-15.94c0-1.33-0.24-1.85-1.56-1.59c-2.83,0.54-5.65,1-8.48,1.52
			c-1.89,0.35-2.27,0.88-2.16,2.76c0.47,7.49,0.43,6.64,0.87,14.14c0.11,1.86-1.84,2.22-4.02,2.4c-0.01-0.04-0.01-0.08-0.02-0.12
			c0.01-1.64,0.01-3.53,0.02-6.23c0-1.33-0.24-1.85-1.56-1.59c-2.83,0.54-5.65,1-8.48,1.52c-1.89,0.35-2.27,0.88-2.16,2.76
			c0.47,7.49,0.43,5.96,0.87,13.45c0.08,1.36-2.4,2.53-4.58,3.21c-7.51,1.8-6.68,1.62-14.24,3.41c-1.88,0.45-1.89-1.51-1.68-3.72
			c0.47-0.15,0.88-0.31,1.28-0.4l0.68-0.21c0.63,0,1.27-0.03,1.93-0.13c7.56-1.19,2.78-0.32,9.36-1.48c1.87-0.33,3.4-2.13,3.39-4
			c-0.01-2.21,0.02-4.43,0-6.65c-0.01-1.89-0.47-2.19-2.37-1.73c-7.57,1.82-1.7,0.73-9.27,2.53c-1.5,0.36-1.81-0.82-1.76-2.43
			c0.02-0.76,0.61-1.51,1.36-1.69c0,0,0.01,0,0.01,0l3.14-0.98c0.75-0.24,1.31-0.98,1.31-1.73l0-5.7c0-0.84-0.68-1.39-1.51-1.24
			l-2.76,0.49c-6.95,1.29-12.51,7.64-12.64,14.27c-0.01,0.43,0.01,0.85,0.04,1.26c-8.81,1.57-23.14,4.1-25.55,4.6
			c-1.41,0.29-1.88-0.01-1.87-1.49c0.06-11.94,0.03-13.82,0.03-25.75c0-2.5-0.16-2.63-2.68-2.18c-2.15,0.38-4.29,0.82-6.44,1.14
			c-1.44,0.22-1.97,0.98-1.97,2.33c0.02,3.71,0.01,7.42,0.01,11.27l-0.01,11.27c0,0.83,0,1.94,0,2.55c0,7.43,0,4.33,0.02,11.76
			c0,2.29,0.2,2.44,2.54,2.03c4.82-0.86,21.81-3.89,32.98-5.89c-0.24,0.95-0.39,1.93-0.41,2.91c-0.12,6.71,5,11.41,11.74,10.35
			c8.11-1.27,7.8-1.21,15.91-2.65c0.19-0.03,0.35-0.07,0.51-0.11c8.63-1.73,14.48-7.54,14.63-14.18c0-0.01,0-0.01,0-0.02
			c0.93,0.09,1.9,0.07,2.9-0.09C193.03,159.31,198.64,153.18,198.78,146.42z"/>
		<path class="st7" d="M105.27,98.24c6.68-1.09,12.3-6.54,12.44-12.42c0.05-1.88,0.08-3.23,0.11-4.35c1.36-0.24,2.66-0.48,3.88-0.69
			c3.36-0.6,5.97-1.06,7.03-1.25c1.33-0.23,1.99-0.86,1.98-2.23c0-0.03,0-0.06,0-0.09c0-0.06,0-0.12,0-0.18v-3.05
			c0-6.47,0.02-12.94-0.03-19.4c-0.05-6.94-5.4-11.55-12.01-10.49c-6.68,1.07-12.3,7.2-12.44,13.97c-0.17,8.14-0.21,2.62-0.23,10.74
			c0,1.33,0.59,1.78,1.91,1.53c2.83-0.54,4.84-0.86,7.66-1.38c1.69-0.31,2.17-0.78,2.17-2.21l-0.01-0.01l-0.54-10.05
			c-0.02-0.31,0.06-0.63,0.2-0.91c0.02-0.06,0.05-0.11,0.08-0.15c0.2-0.34,0.5-0.62,0.84-0.75c0.13-0.05,0.26-0.08,0.39-0.08
			c0.27,0,0.5,0.13,0.66,0.35c0.03,0,0.06-0.01,0.09-0.01c0.01,0.08,0.02,0.15,0.03,0.22c0.05,0.13,0.09,0.27,0.1,0.43l0.03,0.56
			c0,0.01,0,0.03,0,0.04c0.27,4.23,0.54,8.47,0.79,12.71c0.02,0.29,0.03,0.56,0.05,0.82c-1.72,0.31-2.77,0.48-3.83,0.67
			c-0.09,0.01-0.18,0.02-0.28,0.04c-0.34,0.06-0.67,0.12-1.01,0.18c-1.5,0.26-3.44,0.6-7.23,1.3c-0.08,0.01-0.16,0.03-0.24,0.04
			c-1.89,0.35-2.27,0.82-2.16,2.45c0.35,4.85,0.41,5.67,0.61,8.49l-0.03,0.18c0.03-0.01,0.05,0.11,0.06,0.27
			c0.06,0.87,0.13,1.93,0.23,3.33c0.11,1.61-1.5,3.32-2.7,1.94c-0.26-0.3-0.15-1.84-0.17-2.19v-4.07l-0.01,0l-0.07-10.45l-0.05-7.33
			c0-0.12,0-0.25,0-0.38c0-6.23-0.03-14.52,0-16.74c0.02-1.42-0.6-1.89-2-1.58c-2.25,0.49-4.5,0.91-6.75,1.38
			c-2.08,0.43-2.36,0.77-2.36,2.82c-0.01,6.54,0,26.65,0,33.19c0,0.06,0,0.1,0,0.16l-0.01,0v3.71
			C92.47,96.13,98.66,99.31,105.27,98.24z"/>
		<path class="st7" d="M115.43,101.1c0.09,2.23,0.11,4.48,0.18,6.72c0.06,2.07,0.34,2.3,2.4,1.93c6.54-1.16,17.17-3.06,23.71-4.24
			c2.34-0.42,2.53-0.64,2.54-2.93c0.01-3.77,0.01-7.54,0.01-11.31c5.09-0.9,17.21-3.03,22.3-3.99c1.35-0.26,3.82-0.69,4.53-2.46
			c0.04,0.41,0,1.47,0.69,1.34c7.59-1.38,8.16-1.36,15.74-2.94c5.73-1.19,10.68-6.91,11.37-12.61c0.72-5.86-2.67-10.75-8.07-11.66
			c-8.09-1.35-16.24,5.59-16.61,14.19c-0.05,1.15-0.33,1.71-1.53,1.75c-1.18,0.04-0.79-0.93-0.8-1.57
			c-0.02-8.63,0.03-17.28-0.03-25.9c-0.05-6.94-5.4-11.55-12.01-10.49c-6.68,1.07-12.3,7.2-12.44,13.97
			c-0.17,8.14-0.21,2.62-0.23,10.74c0,1.33,0.59,1.78,1.91,1.53c2.83-0.54,4.84-0.86,7.66-1.38c1.89-0.35,2.27-0.88,2.16-2.76
			c-0.26-4.19-0.21-4.17-0.19-4.65l-0.27-5.13c-0.04-0.76,0.46-1.57,1.12-1.81c0.13-0.05,0.26-0.08,0.39-0.08
			c0.48,0,0.86,0.39,0.89,1l0.84,13.84l-0.07-0.07c0.03,0.59,0.07,1.17,0.1,1.76c-0.36-0.01-0.72,0-1.09,0.02
			c-6.59,0.44-12.33,5.65-13.54,12.31c-0.2,1.1-0.26,2.2-0.4,3.42c-0.75,0.13-1.47,0.26-2.41,0.43c0-0.55,0-1.11,0-1.84l-0.01-11.27
			c0-3.85-0.01-7.56,0.01-11.27c0.01-1.36-0.52-1.93-1.97-1.63c-2.14,0.45-4.29,0.78-6.44,1.16c-2.52,0.45-2.68,0.65-2.68,3.14
			c0,11.93-0.03,23.87,0.03,35.79c0.01,1.48-0.46,1.95-1.87,2.16c-3.29,0.5-10.68,1.9-13.97,2.46
			C115.95,98.99,115.37,99.71,115.43,101.1z M185.57,69.64c0-0.76,0.87-1.54,1.94-1.75c0.22-0.04,0.42-0.06,0.62-0.05
			c0.77,0.03,1.33,0.44,1.33,1.04v5.45l-3.89,0.75V69.64z M157.81,74.26c0-0.76,0.87-1.54,1.94-1.75c0.22-0.04,0.42-0.06,0.62-0.05
			c0.77,0.03,1.33,0.44,1.33,1.04v5.45l-3.89,0.75V74.26z"/>
		<path class="st7" d="M76.27,103.18c6.34-0.95,12.06-7.01,12.46-13.52c0.28-4.59,0.13-9.12,0.16-13.68c0-0.57,0-1.13,0-1.78
			l0.01-11.18l-7.74,1.38c-1.41,0.24-1.78,1.04-1.88,2.27c-0.63,7.78-1.29,15.56-1.95,23.34c-0.17,2.01-0.2,2.01-2.38,2.13
			c0-0.48-0.04-0.97,0.01-1.48c0.66-7.57,1.33-15.15,2.01-22.72c0.23-2.62,0.04-2.81-2.56-2.34c-2.72,0.49-5.44,1-8.17,1.46
			c-1.31,0.22-1.92,0.86-1.92,2.2c0.02,8.06-0.1,16.14,0.04,24.18C64.46,99.94,69.8,104.15,76.27,103.18z"/>
		<path class="st7" d="M79.25,175.2c2.15-0.38,4.29-0.81,6.44-1.15c1.42-0.22,2.1-0.85,2.1-2.38c-0.03-11.3-0.03-16.78,0-28.09
			c0-1.4-0.54-1.9-1.94-1.64c-6.49,1.19-12.98,2.36-19.47,3.48c-1.41,0.24-1.78,1.04-1.88,2.27c-0.63,7.78-1.29,25.22-1.95,33
			c-0.17,2.01-0.2,2.01-2.38,2.13c0-0.48-0.03-0.97,0.01-1.48c0.66-10.19,0.17-11.07-1.73-10.73c-2.72,0.49-5.44,1-8.17,1.46
			c-1.31,0.22-0.84,4.02-0.7,12.05c0.11,6.48,5.45,10.7,11.92,9.72c6.34-0.95,12.06-7.01,12.46-13.52
			c0.28-4.59,0.13-18.78,0.16-23.34c0-0.57,0-1.13,0-1.78c1.01-0.18,1.71-0.31,2.6-0.46c0,0.67,0,15.79,0,16.35
			c0,7.48,0.01-5.42,0.01,2.07C76.72,175.45,76.94,175.62,79.25,175.2z"/>
		<path class="st7" d="M49.5,143.23c0,1.4,0.54,1.9,1.94,1.64c4.55-0.83,16.26-2.94,25.1-4.51v0.02l7.94-1.42
			c0.37-0.06,0.72-0.13,1.03-0.18c0.03,0,0.05-0.01,0.07-0.02l6.69-1.2c2.72-0.49,5.44-1,8.17-1.46c1.31-0.22,1.92-0.86,1.92-2.2
			c-0.01-2.44,0-4.88,0.01-7.31c5.14-0.91,10.27-1.83,15.41-2.74c0.61-0.11,1.22-0.22,2.05-0.37l11.16-2
			c1.52-0.27,3.01-0.54,4.49-0.81c1.48,4.95,6.06,7.92,11.51,7.05c5.78-0.92,10.75-5.63,12.09-11.26l0.84-0.15l0.01,0
			c0.58-0.1,1.18-0.21,1.8-0.32c0,3.09,0,1.65,0,0c0,0,0.01,0,0.01,0c0,0.18,0,0.35,0,0.56c0,2.76,0.22,2.97,2.53,2.56
			c2.15-0.38,4.29-0.82,6.44-1.15c1.42-0.22,2.1-0.96,2.1-2.81c0-0.4,0-0.77,0-1.13c4.86-0.87,9.74-1.75,13.56-2.45
			c6.95-1.29,12.51-7.64,12.64-14.27c0.12-6.71-5-11.41-11.74-10.35c-8.11,1.27-15.55,2.37-23.66,3.8
			c-1.33,0.23-1.89,0.93-1.87,2.25c0.03,2.09,0.01,4.2,0.01,6.3c0,0-0.01,0-0.01,0v6.94c-0.72,0.18-1.43,0.36-2.15,0.54
			c0.04-2.35,0.05-4.22,0.05-8.96c0-1.33-0.24-1.85-1.56-1.59c-2.83,0.54-5.65,1-8.48,1.52c-1.89,0.35-2.27,0.88-2.16,2.76
			c0.47,7.49,0.43,6.64,0.87,14.14c0.11,1.86-1.84,2.22-4.02,2.4c-0.07-0.46-0.15-0.85-0.17-1.25l-0.01-0.1
			c-0.02-1.71,0-3.43,0-5.15c0-2.58-0.16-2.72-2.64-2.28c-11.81,2.11-23.62,4.19-35.43,6.36l-3.64,0.65
			c-0.01-1.85-0.02-3.69-0.06-5.53c-0.11-6.48-5.45-10.7-11.92-9.72c-6.34,0.95-12.06,7.01-12.46,13.52
			c-0.28,4.59-0.13,9.12-0.16,13.68c0,0.57,0,1.13,0,1.78c-0.14,0.03-0.59,0.1-1.23,0.22c-3.86,0.69-15.2,2.72-15.96,2.85
			c0-0.67,0-11.14,0-11.7c0-7.48-0.01,6.21-0.01-1.27c0-2.27-0.22-2.44-2.53-2.03c-2.15,0.38-4.29,0.81-6.44,1.15
			c-1.42,0.22-2.1,0.85-2.1,2.38C49.53,131.89,49.53,131.92,49.5,143.23z M172.78,99.36l12.94-2.87c0.14-0.03,0.27-0.06,0.41-0.1
			c0.03-0.01,0.05-0.01,0.08-0.01l0.51-0.11c0.74-0.15,1.53,0.63,1.75,1.75c0.04,0.23,0.07,0.45,0.06,0.66
			c-0.01,0.84-0.41,1.53-1,1.65l-11.63,2.55c-1.09,0.24-2.15,0.48-3.13,0.7C172.77,102.92,172.78,100.27,172.78,99.36z
			 M86.29,127.47l1.36-16.24c0.03-0.76,0.98-1.33,2.12-1.27c0.23,0.01,0.45,0.04,0.66,0.1c0.63,0.17,1.11,0.54,1.29,0.98
			c0,0,0.01,0,0.01,0c0,0.01,0,0.02,0,0.03c0.04,0.12,0.07,0.24,0.06,0.36l-0.06,0.73c0,0.12,0,0.24-0.01,0.36
			c-0.1,1.15-0.2,2.31-0.31,3.46l-0.89,10.73l-0.07,0.01l-4.17,0.77C86.29,127.49,86.29,127.48,86.29,127.47L86.29,127.47z"/>
		<path class="st8" d="M126.16,83.3c-0.87-0.74-1.69-0.62-2.56,0.41c-1.26,1.48-2.52,2.95-3.78,4.44c-0.81,0.95-0.84,1.79-0.02,2.47
			c1.29,1.07,2.59,2.13,3.88,3.19c0.84,0.69,1.63,0.46,2.44-0.52c1.24-1.49,2.53-2.95,3.77-4.45c0.31-0.38,0.52-0.84,0.83-1.35
			c-0.33-0.44-0.55-0.87-0.9-1.17C128.62,85.28,127.36,84.33,126.16,83.3z"/>
		<path class="st8" d="M132.83,129.1c-1.26,1.48-2.52,2.95-3.78,4.44c-0.05,0.06-0.09,0.12-0.13,0.17
			c-0.05-0.05-0.09-0.12-0.15-0.17c-1.2-1.03-2.46-1.98-3.65-3.01c-0.87-0.74-1.69-0.62-2.56,0.41c-1.26,1.48-2.52,2.95-3.78,4.44
			c-0.81,0.95-0.84,1.79-0.02,2.47c1.29,1.07,2.59,2.13,3.88,3.19c0.84,0.69,1.63,0.46,2.44-0.52c1.24-1.49,2.53-2.95,3.77-4.45
			c0.04-0.04,0.06-0.1,0.1-0.15c0.03,0.03,0.06,0.06,0.09,0.09c1.29,1.07,2.59,2.13,3.88,3.19c0.84,0.69,1.63,0.46,2.44-0.52
			c1.24-1.49,2.53-2.95,3.77-4.45c0.31-0.38,0.52-0.84,0.83-1.35c-0.33-0.44-0.55-0.87-0.9-1.17c-1.2-1.03-2.46-1.98-3.65-3.01
			C134.52,127.95,133.7,128.07,132.83,129.1z"/>
		<path class="st8" d="M60.24,153.55c0.84-0.99,0.75-1.76-0.08-2.42c-1.27-1.01-2.5-2.08-3.77-3.09c-0.32-0.26-0.75-0.39-1.2-0.62
			c-0.5,0.42-0.97,0.73-1.33,1.14c-1.24,1.42-2.42,2.89-3.67,4.31c-0.9,1.03-0.92,1.85-0.05,2.57c1.26,1.03,2.5,2.08,3.76,3.11
			c0.05,0.04,0.1,0.07,0.15,0.1c-0.06,0.06-0.14,0.12-0.2,0.18c-1.24,1.42-2.42,2.89-3.67,4.31c-0.9,1.03-0.92,1.85-0.05,2.57
			c1.26,1.03,2.5,2.08,3.76,3.11c0.81,0.66,1.64,0.55,2.46-0.42c1.3-1.52,2.59-3.05,3.88-4.57c0.84-0.99,0.75-1.76-0.08-2.42
			c-1.27-1.01-2.5-2.08-3.77-3.09c-0.04-0.03-0.09-0.05-0.13-0.08c0.03-0.04,0.07-0.07,0.1-0.11
			C57.66,156.6,58.95,155.07,60.24,153.55z"/>
		<path class="st8" d="M194.43,159.63c-0.87-0.74-1.69-0.62-2.56,0.41c-1.26,1.48-2.52,2.95-3.78,4.44
			c-0.81,0.95-0.84,1.79-0.02,2.47c1.29,1.07,2.59,2.13,3.88,3.19c0.84,0.69,1.63,0.46,2.44-0.52c1.24-1.49,2.53-2.95,3.77-4.45
			c0.31-0.38,0.52-0.84,0.83-1.35c-0.33-0.44-0.55-0.87-0.9-1.17C196.89,161.61,195.63,160.66,194.43,159.63z"/>
		<path class="st8" d="M175.23,130.35c-1.26,1.48-2.52,2.95-3.78,4.44c-0.81,0.95-0.84,1.79-0.02,2.47
			c1.29,1.07,2.59,2.13,3.88,3.19c0.84,0.69,1.63,0.46,2.44-0.52c1.24-1.49,2.53-2.95,3.77-4.45c0.31-0.38,0.52-0.84,0.83-1.35
			c-0.33-0.44-0.55-0.87-0.9-1.17c-1.2-1.03-2.46-1.98-3.65-3.01C176.92,129.2,176.1,129.33,175.23,130.35z"/>
		<path class="st8" d="M158.24,124.61c-0.87-0.74-1.69-0.62-2.56,0.41c-1.26,1.48-2.52,2.95-3.78,4.44
			c-0.81,0.95-0.84,1.79-0.02,2.47c1.29,1.07,2.59,2.13,3.88,3.19c0.84,0.69,1.63,0.46,2.44-0.52c1.24-1.49,2.53-2.95,3.77-4.45
			c0.31-0.38,0.52-0.84,0.83-1.35c-0.33-0.44-0.55-0.87-0.9-1.17C160.69,126.6,159.43,125.64,158.24,124.61z"/>
		<path class="st8" d="M72.65,60.41c1.29,1.07,2.59,2.13,3.88,3.19c0.84,0.69,1.63,0.46,2.44-0.52c1.24-1.49,2.53-2.95,3.77-4.45
			c0.31-0.38,0.52-0.84,0.83-1.35c-0.33-0.44-0.55-0.87-0.9-1.17c-1.2-1.03-2.46-1.98-3.65-3.01c-0.87-0.74-1.69-0.62-2.56,0.41
			c-1.26,1.48-2.52,2.95-3.78,4.44C71.86,58.89,71.82,59.73,72.65,60.41z"/>
		<path class="st7" d="M100.19,155.08l-0.27,0.05l-4.94,0.88l-0.03,0.01h0l-1.06,0.19l-1.03,0.18c0.07-0.01,0.13-0.01,0.2-0.02
			c-1.94,0.39-2.08,0.75-2.08,3.03c0,3.3,0,5.59,0,7.43c0,4.84-0.01,0.3,0.04,8.93c0.01,1.48-0.46,1.95-1.87,2.16
			c-3.29,0.5-6.13,1.09-9.42,1.64c-1.41,0.24-2,0.96-1.94,2.34c0.09,2.23,0.11,4.48,0.18,6.72c0.06,2.07,0.34,2.3,2.4,1.93
			c6.54-1.16,12.62-2.25,19.16-3.43c2.34-0.42,2.53-0.64,2.54-2.93c0.01-5.31,0-12.06,0.01-20.45c0-3.36,0-5.97,0.01-7.03
			C102.07,155.4,101.56,154.83,100.19,155.08z"/>
		<path class="st8" d="M97.83,141.07c-0.87-0.74-1.69-0.62-2.56,0.41c-1.26,1.48-2.52,2.95-3.78,4.44
			c-0.81,0.95-0.84,1.79-0.02,2.47c1.29,1.07,2.59,2.13,3.88,3.19c0.84,0.69,1.63,0.46,2.44-0.52c1.24-1.49,2.53-2.95,3.77-4.45
			c0.31-0.38,0.52-0.84,0.83-1.35c-0.33-0.44-0.55-0.87-0.9-1.17C100.28,143.06,99.03,142.1,97.83,141.07z"/>
		<path class="st8" d="M64.6,117.08c1.29,1.07,2.59,2.13,3.88,3.19c0.84,0.69,1.63,0.46,2.44-0.52c1.24-1.49,2.53-2.95,3.77-4.45
			c0.31-0.38,0.52-0.84,0.83-1.35c-0.33-0.44-0.55-0.87-0.9-1.17c-1.2-1.03-2.46-1.98-3.65-3.01c-0.87-0.74-1.69-0.62-2.56,0.41
			c-1.26,1.48-2.52,2.95-3.78,4.44C63.81,115.57,63.77,116.4,64.6,117.08z"/>
	</g>
</g>
</svg>
