<?xml version="1.0" encoding="utf-8"?>
<!-- Generator: Adobe Illustrator 28.3.0, SVG Export Plug-In . SVG Version: 6.00 Build 0)  -->
<svg version="1.1" id="Layer_1" xmlns="http://www.w3.org/2000/svg" xmlns:xlink="http://www.w3.org/1999/xlink" x="0px" y="0px"
	 viewBox="0 0 255.38 236.45" style="enable-background:new 0 0 255.38 236.45;" xml:space="preserve">
<style type="text/css">
	.st0{fill:#E5E6E6;}
	.st1{fill:#F3F3F3;}
	.st2{fill:#2D193E;}
	.st3{fill:none;}
	.st4{fill:#F2F3F1;}
	.st5{fill:#F5BB18;}
	.st6{fill:#2C193F;}
	.st7{fill:#F04B52;}
	.st8{fill:#F8BC16;}
	.st9{fill:#F6F6F6;}
	.st10{fill:#08B2E1;}
</style>
<g>
	<g>
		<g>
			<path class="st0" d="M159.41,30.22c3.34,0,6.45,1.11,8.94,3.22c0.22,0.19,0.43,0.38,0.64,0.58l0,0l5.65,5.66
				c0.24,0.22,0.47,0.45,0.69,0.69l0.04,0.04l0,0c2.41,2.62,3.74,6.12,3.77,10.03c0.01,1.35,0.02,2.71,0.02,4.07
				c2.48-1.24,5.15-1.89,7.82-1.89c0.89,0,1.77,0.07,2.65,0.22c2.97,0.5,5.49,1.86,7.41,3.81l0.02,0l5.36,5.38l-0.01,0
				c3.19,2.96,4.85,7.47,4.23,12.49c-0.61,5.02-3.7,9.82-7.85,12.88c0.21,0.33,0.4,0.67,0.57,1.02c0.97,0.49,1.88,1.09,2.72,1.82
				c3.05,2.66,4.76,6.7,4.68,11.09c-0.16,8.34-6.88,16.13-15.39,17.93l2.19,5.08c0.51-0.09,1.01-0.18,1.52-0.27
				c0.44-0.08,0.85-0.12,1.25-0.12c1.14,0,2.13,0.34,2.94,1.02c0.08,0.07,0.16,0.14,0.24,0.22l0,0l0.04,0.04
				c0.01,0.01,0.02,0.02,0.04,0.04l5.49,5.51c1.69,1.4,1.68,3.5,1.68,4.29c-0.01,7.59-0.02,7.97-0.16,14.35l-0.04,1.95
				c-0.09,4.26-1.85,8.32-4.65,11.5c0.25,0.2,0.49,0.41,0.74,0.61c0.65,0.53,1.3,1.05,1.94,1.6c0.61,0.52,0.98,1.08,1.26,1.49
				c0.06,0.09,0.12,0.18,0.19,0.28l1.47,1.95l-1.26,2.09c-0.08,0.13-0.15,0.26-0.22,0.38c-0.23,0.41-0.51,0.91-0.94,1.43
				c-0.66,0.79-1.33,1.58-2,2.36c-0.62,0.72-1.23,1.44-1.84,2.17c-1.32,1.59-2.83,2.23-4.25,2.23c-1.22,0-2.38-0.47-3.29-1.23
				l-1.05-0.86c-0.97-0.8-1.94-1.59-2.91-2.39c-0.51-0.42-0.89-0.87-1.17-1.31c-2.93,4.84-8.4,8.51-15.35,9.92
				c-0.21,0.05-0.43,0.1-0.68,0.14c-7.59,1.34-7.97,1.4-14.34,2.4l-1.93,0.3c-0.84,0.13-1.67,0.2-2.49,0.2
				c-3.38,0-6.5-1.13-8.97-3.27c-0.45-0.4-0.87-0.83-1.26-1.29l0,0.02l-4.54-4.53c0,0,0,0,0,0c-1.03-0.9-1.91-1.96-2.61-3.13
				c-10.16,1.81-21.38,3.82-25.18,4.49c-0.63,0.11-1.35,0.24-2.11,0.24c-0.35,0-0.7-0.03-1.05-0.09c0,4.07,0,7.63-0.01,10.72
				c-0.01,4.09-1.46,5.8-5.56,6.53c-6.66,1.2-12.85,2.31-19.52,3.49c-0.47,0.08-1.12,0.2-1.83,0.2c-0.98,0-2.08-0.21-3.06-1.01
				c-1.49-1.21-1.72-2.97-1.77-4.15c-2.92,4.32-7.56,7.57-12.64,8.33c-0.82,0.12-1.64,0.18-2.44,0.18c0,0,0,0,0,0
				c-3.42,0-6.58-1.12-9.1-3.24c-0.38-0.32-0.73-0.66-1.07-1.01l0,0l-5.66-5.66l0-0.02c-2.41-2.47-3.76-5.78-3.82-9.47
				c-0.03-1.74-0.07-3.29-0.11-4.64c-0.08-2.64-0.13-4.54-0.02-5.98c0.22-2.93,1.41-4.29,2.66-4.9l-0.63-0.52
				c-1.47-1.21-1.87-2.61-1.95-3.56c-0.12-1.47,0.41-2.89,1.58-4.22c0.5-0.58,1-1.16,1.49-1.75l-1.12-0.93
				c-1.47-1.21-1.87-2.61-1.95-3.56c-0.12-1.47,0.41-2.89,1.58-4.22c0.62-0.7,1.22-1.42,1.82-2.14c0.04-0.05,0.08-0.09,0.12-0.14
				c-0.65-0.18-1.25-0.47-1.77-0.9c-1.17-0.98-1.76-2.41-1.76-4.26l0-1.37c0.03-10.25,0.03-10.65-0.01-21.67
				c-0.01-3.29,1.88-5.48,5.18-6c1.45-0.23,2.94-0.5,4.39-0.77c0.7-0.13,1.4-0.26,2.1-0.38c0.59-0.11,1.3-0.23,2.06-0.23
				c0.54,0,1.1,0.06,1.65,0.25c0.22-0.42,0.49-0.84,0.86-1.28c0.76-0.9,1.52-1.79,2.29-2.69l1.57-1.84c0.81-0.95,1.72-1.59,2.7-1.91
				c-0.13-0.22-0.24-0.44-0.35-0.66c-0.92-0.46-1.78-1.03-2.58-1.7c-2.99-2.53-4.68-6.21-4.75-10.35
				c-0.09-5.38-0.07-10.85-0.05-16.14c0.01-2.84,0.02-5.69,0.01-8.53c-0.01-3.12,1.85-5.29,4.97-5.81c1.49-0.25,2.97-0.51,4.46-0.78
				c-1.11-1.09-1.46-2.29-1.53-3.14c-0.09-1,0.09-2.53,1.47-4.15c0.76-0.9,1.53-1.8,2.3-2.7l1.55-1.82
				c1.12-1.32,2.42-2.04,3.88-2.16c0.12-0.01,0.24-0.01,0.38-0.01c0.94,0,2.19,0.27,3.46,1.36c0.58,0.5,1.18,0.98,1.78,1.46
				c0.65,0.53,1.31,1.06,1.94,1.6c0.61,0.52,0.98,1.08,1.26,1.49c0.06,0.09,0.12,0.18,0.19,0.28l0.88,1.17
				c0.5,0.43,1.02,0.85,1.53,1.26c0.06,0.05,0.11,0.09,0.17,0.14c0-3.13,0-5.82,0-7.56c0-3.82,1.48-5.61,5.28-6.4
				c0.91-0.19,1.83-0.37,2.75-0.56c1.36-0.27,2.73-0.55,4.09-0.84c0.54-0.12,1.04-0.17,1.5-0.17c1.47,0,2.48,0.54,3.12,1.06
				c0.73,0.59,1.58,1.66,1.76,3.47c2.84-3.3,6.8-5.68,11.22-6.39c0.84-0.14,1.67-0.2,2.49-0.2c3.34,0,6.45,1.11,8.94,3.22
				c1.36,1.15,2.45,2.55,3.27,4.11c0.9,0.46,1.74,1.03,2.53,1.69c0.77,0.65,1.45,1.39,2.05,2.19c0.1-0.02,0.2-0.04,0.3-0.05
				c1.49-0.25,2.89-0.5,4.3-0.79c0.51-0.11,0.98-0.15,1.41-0.15c0.33,0,0.63,0.03,0.91,0.07c0.35-8.42,7.19-16.01,15.7-17.38
				C157.75,30.29,158.59,30.22,159.41,30.22 M159.41,26.75C159.41,26.75,159.41,26.75,159.41,26.75c-1,0-2.03,0.08-3.04,0.25
				c-9.11,1.46-16.48,8.72-18.24,17.49c-0.83,0.17-1.66,0.32-2.5,0.47c-0.37-0.39-0.76-0.75-1.16-1.08c-0.7-0.59-1.44-1.13-2.23-1.6
				c-0.97-1.6-2.16-3.01-3.57-4.21c-3.12-2.64-6.99-4.04-11.18-4.04c-1,0-2.03,0.08-3.04,0.25c-3.49,0.56-6.81,2-9.68,4.16
				c-0.19-0.19-0.38-0.36-0.56-0.5c-1.47-1.2-3.31-1.83-5.31-1.83c-0.73,0-1.48,0.08-2.24,0.25c-1.33,0.29-2.7,0.57-4.03,0.83
				c-0.93,0.18-1.85,0.37-2.77,0.56c-5.14,1.07-7.77,4.02-8.02,9c-0.12-0.1-0.23-0.19-0.34-0.28c-0.61-0.49-1.16-0.94-1.69-1.4
				c-1.67-1.44-3.65-2.19-5.72-2.19c-0.21,0-0.43,0.01-0.64,0.02c-2.38,0.19-4.54,1.35-6.25,3.37l-1.55,1.82l-0.06,0.07
				c-0.75,0.88-1.5,1.76-2.25,2.64c-2.15,2.54-2.42,5.04-2.28,6.7c0.01,0.06,0.01,0.12,0.02,0.18c-0.02,0-0.04,0.01-0.06,0.01
				c-4.79,0.8-7.88,4.43-7.87,9.24c0.01,2.71,0,5.42-0.01,8.13l0,0.38c-0.02,5.32-0.04,10.8,0.05,16.21
				c0.08,4.97,2.06,9.42,5.58,12.59l-1.34,1.57c-0.71,0.83-1.42,1.67-2.13,2.5c-0.01,0-0.02,0-0.03,0c-1.07,0-2,0.17-2.67,0.29
				c-0.71,0.13-1.41,0.26-2.12,0.39c-1.44,0.27-2.9,0.54-4.3,0.76c-5.02,0.79-8.13,4.41-8.11,9.44c0.03,11.07,0.03,11.47,0.01,21.65
				l0,1.37c-0.01,2.7,0.89,4.57,1.91,5.83c-1.41,1.88-2.06,3.98-1.89,6.12c0.13,1.64,0.75,3.18,1.77,4.49
				c-1.33,1.84-1.94,3.88-1.77,5.97c0.11,1.33,0.54,2.6,1.24,3.74c-0.67,1.17-1.18,2.7-1.33,4.7c-0.12,1.62-0.07,3.6,0.02,6.34
				c0.04,1.36,0.08,2.88,0.11,4.6c0.08,4.44,1.72,8.57,4.63,11.65c0.07,0.08,0.14,0.16,0.21,0.23l5.63,5.63
				c0.42,0.44,0.86,0.85,1.31,1.24c3.14,2.66,7.06,4.06,11.34,4.06c0.98,0,1.97-0.08,2.95-0.22c4.02-0.61,7.94-2.54,11.15-5.42
				c0.17,0.17,0.36,0.34,0.56,0.5c1.46,1.19,3.22,1.79,5.25,1.79c1.02,0,1.87-0.15,2.44-0.25c6.67-1.19,12.86-2.29,19.52-3.49
				c5.73-1.03,8.4-4.19,8.41-9.94c0-2.21,0.01-4.68,0.01-7.4c0.1-0.02,0.2-0.03,0.29-0.05c3.54-0.63,13.49-2.4,23.03-4.11
				c0.55,0.67,1.15,1.29,1.79,1.86l4.46,4.46c0.02,0.02,0.05,0.05,0.07,0.07c0.47,0.53,0.91,0.97,1.37,1.36
				c3.1,2.7,6.99,4.13,11.25,4.13c0.99,0,2.01-0.08,3.02-0.24l1.93-0.3c6.39-1,6.77-1.06,14.4-2.41c0.28-0.05,0.55-0.1,0.82-0.17
				c6.08-1.24,11.36-4.13,15.02-8.12c0.49,0.4,0.97,0.8,1.46,1.2l1.05,0.86c1.58,1.3,3.53,2.01,5.49,2.01c2.6,0,5.05-1.24,6.92-3.49
				c0.59-0.71,1.19-1.42,1.8-2.12c0.77-0.9,1.4-1.63,2.04-2.41c0.63-0.76,1.03-1.48,1.3-1.95l0.03-0.06
				c0.04-0.07,0.08-0.15,0.13-0.22l1.26-2.08c0.73-1.21,0.66-2.75-0.19-3.88l-1.47-1.95c-0.02-0.03-0.04-0.06-0.06-0.09
				c0,0-0.02-0.03-0.02-0.03c-0.35-0.51-0.91-1.36-1.88-2.19c-0.06-0.05-0.12-0.1-0.18-0.15c2.1-3.31,3.28-7.06,3.36-10.85
				l0.04-1.95c0.14-6.43,0.15-6.81,0.16-14.42c0.01-2.93-0.93-5.23-2.79-6.84l-5.39-5.41l-0.05-0.05l-0.03-0.03
				c-0.06-0.06-0.12-0.11-0.18-0.17c-0.1-0.09-0.2-0.18-0.3-0.27c-1.06-0.88-2.31-1.45-3.68-1.69c7.22-3.75,12.27-11.21,12.41-19.2
				c0.1-5.42-2.04-10.44-5.87-13.77c-0.1-0.09-0.21-0.18-0.32-0.27c3.3-3.51,5.49-7.93,6.04-12.41c0.73-5.92-1.15-11.47-5.14-15.29
				c-0.02-0.02-0.05-0.05-0.07-0.07l-5.36-5.38c-0.08-0.08-0.16-0.15-0.24-0.22c-2.46-2.4-5.58-3.98-9.06-4.56
				c-1.06-0.18-2.14-0.27-3.22-0.27c-1.46,0-2.94,0.16-4.39,0.49c-0.2-4.37-1.8-8.41-4.55-11.46c-0.06-0.07-0.13-0.15-0.2-0.21
				c-0.25-0.26-0.51-0.52-0.78-0.78l-5.61-5.62c-0.05-0.05-0.09-0.09-0.14-0.14c-0.25-0.23-0.48-0.44-0.71-0.64
				C167.46,28.15,163.6,26.75,159.41,26.75L159.41,26.75z"/>
		</g>
		<g>
			<path class="st1" d="M61.23,207.11c-4.35,0-8.33-1.43-11.53-4.13c-0.46-0.39-0.91-0.81-1.33-1.26l-5.63-5.62
				c-0.08-0.08-0.15-0.16-0.22-0.24c-2.96-3.13-4.63-7.34-4.7-11.85c-0.03-1.7-0.07-3.23-0.11-4.58l0-0.01
				c-0.08-2.75-0.14-4.73-0.01-6.37c0.14-1.8,0.57-3.37,1.28-4.67c-0.69-1.15-1.09-2.4-1.2-3.72c-0.17-2.08,0.42-4.14,1.7-5.99
				c-0.98-1.32-1.57-2.87-1.7-4.47c-0.17-2.14,0.45-4.26,1.81-6.14c-1.22-1.59-1.84-3.55-1.83-5.83l0-1.37
				c0.03-10.18,0.03-10.57-0.01-21.65c-0.01-5.19,3.19-8.92,8.36-9.74c1.39-0.22,2.86-0.49,4.28-0.75c0.71-0.13,1.42-0.26,2.12-0.39
				c0.66-0.12,1.57-0.28,2.62-0.29c0.68-0.8,1.36-1.6,2.04-2.4l1.15-1.35c-3.44-3.21-5.38-7.67-5.46-12.61
				c-0.09-5.42-0.07-10.91-0.05-16.22l0-0.38c0.01-2.66,0.02-5.41,0.01-8.13c-0.01-4.9,3.08-8.61,7.9-9.5
				c-0.13-1.71,0.18-4.26,2.35-6.83c0.72-0.85,1.46-1.72,2.18-2.56l1.68-1.97c1.77-2.08,4-3.28,6.46-3.47
				c0.22-0.02,0.45-0.03,0.67-0.03c2.15,0,4.19,0.78,5.92,2.27c0.5,0.43,1.03,0.86,1.59,1.31c0.21-2.29,0.95-4.16,2.21-5.58
				c1.36-1.53,3.38-2.58,6.01-3.13c0.91-0.19,1.79-0.37,2.78-0.56c1.32-0.26,2.68-0.54,4.02-0.83c0.78-0.17,1.56-0.26,2.3-0.26
				c2.07,0,3.97,0.66,5.5,1.9c0.14,0.11,0.27,0.23,0.4,0.35c2.87-2.11,6.19-3.52,9.61-4.06c1.03-0.17,2.07-0.25,3.09-0.25
				c4.26,0,8.2,1.42,11.37,4.11c1.41,1.2,2.62,2.61,3.6,4.22c0.77,0.47,1.51,1,2.2,1.59c0.36,0.31,0.72,0.64,1.07,0.99
				c0.82-0.15,1.52-0.28,2.15-0.41c0.9-4.26,3.17-8.32,6.41-11.45c3.37-3.26,7.53-5.36,12.04-6.08c1.03-0.17,2.07-0.25,3.09-0.25h0
				c4.26,0,8.2,1.42,11.37,4.11c0.24,0.2,0.47,0.41,0.72,0.65c0.05,0.05,0.1,0.09,0.15,0.14l5.61,5.62
				c0.27,0.26,0.54,0.52,0.79,0.79c0.07,0.07,0.14,0.14,0.2,0.22c2.71,3,4.34,7,4.61,11.29c1.37-0.28,2.75-0.42,4.11-0.42
				c1.1,0,2.2,0.09,3.27,0.27c3.53,0.59,6.72,2.19,9.22,4.63c0.09,0.07,0.17,0.15,0.25,0.23l5.36,5.38
				c0.02,0.02,0.05,0.05,0.07,0.07c4.06,3.88,5.96,9.54,5.22,15.54c-0.54,4.42-2.63,8.79-5.9,12.35c0.03,0.02,0.05,0.05,0.08,0.07
				c3.89,3.39,6.07,8.5,5.97,14c-0.14,7.68-4.78,15.09-11.87,19.08c1.12,0.31,2.13,0.83,3.03,1.58c0.1,0.08,0.2,0.18,0.31,0.28
				c0.06,0.06,0.13,0.12,0.19,0.18l0.08,0.08l5.38,5.4c1.92,1.67,2.89,4.05,2.89,7.06c-0.01,7.61-0.02,8-0.16,14.42l-0.04,1.96
				c-0.08,3.74-1.21,7.46-3.27,10.78c0.98,0.85,1.57,1.72,1.92,2.23l0.04,0.06c0.01,0.02,0.03,0.04,0.04,0.06l1.46,1.95
				c0.93,1.24,1.01,2.89,0.21,4.21l-1.26,2.08c-0.04,0.06-0.07,0.12-0.1,0.18l-0.05,0.09c-0.27,0.48-0.68,1.22-1.33,2
				c-0.65,0.78-1.28,1.53-2.05,2.42l-0.02,0.03c-0.58,0.68-1.19,1.39-1.77,2.09c-1.93,2.32-4.47,3.59-7.15,3.59
				c-2.03,0-4.05-0.74-5.68-2.08l-1.05-0.86c-0.41-0.34-0.83-0.68-1.24-1.02c-3.71,3.94-9.02,6.78-14.98,8
				c-0.28,0.07-0.55,0.12-0.84,0.17c-7.63,1.35-8.01,1.41-14.4,2.41l-0.01,0l-1.93,0.3c-1.03,0.16-2.06,0.24-3.07,0.24
				c-4.33,0-8.29-1.45-11.44-4.2c-0.47-0.41-0.91-0.85-1.39-1.38c-0.02-0.02-0.04-0.04-0.07-0.06l-4.45-4.45
				c-0.61-0.54-1.18-1.13-1.71-1.76c-8.06,1.44-19.1,3.41-22.86,4.08l-0.03,0.01c0,0-0.01,0-0.01,0c0,3.01,0,5.22-0.01,7.15
				c-0.01,2.98-0.7,5.24-2.13,6.93c-1.43,1.69-3.56,2.77-6.52,3.3c-6.12,1.1-12.14,2.18-19.53,3.49c-0.58,0.1-1.44,0.26-2.49,0.26
				c-2.1,0-3.93-0.62-5.44-1.85c-0.13-0.1-0.25-0.21-0.38-0.32c-3.24,2.83-7.17,4.71-11.1,5.31
				C63.23,207.03,62.22,207.11,61.23,207.11z M55.24,108.63c-1.05,0-1.96,0.16-2.62,0.28c-0.71,0.13-1.41,0.26-2.11,0.39
				c-1.43,0.26-2.91,0.54-4.31,0.76c-4.86,0.77-7.87,4.27-7.86,9.15c0.03,11.08,0.03,11.48,0.01,21.65l0,1.37
				c-0.01,2.23,0.62,4.13,1.84,5.64l0.15,0.18l-0.14,0.19c-1.36,1.81-1.99,3.86-1.83,5.92c0.13,1.56,0.72,3.06,1.71,4.33l0.14,0.18
				l-0.13,0.18c-1.29,1.77-1.88,3.77-1.72,5.77c0.1,1.28,0.51,2.49,1.2,3.6l0.09,0.15l-0.09,0.15c-0.72,1.25-1.16,2.79-1.29,4.57
				c-0.12,1.61-0.06,3.58,0.02,6.31l0,0.01c0.04,1.35,0.08,2.88,0.11,4.58c0.07,4.36,1.69,8.43,4.55,11.45l0.01,0.01
				c0.06,0.07,0.12,0.14,0.19,0.21l5.63,5.63c0.41,0.43,0.85,0.84,1.29,1.22c3.09,2.61,6.94,3.99,11.15,3.99
				c0.96,0,1.94-0.07,2.91-0.22c3.9-0.59,7.81-2.48,11-5.34l0.21-0.19l0.2,0.2c0.17,0.17,0.35,0.33,0.54,0.48
				c1.4,1.14,3.11,1.72,5.06,1.72c0.99,0,1.83-0.15,2.39-0.25c7.39-1.31,13.41-2.39,19.52-3.49c2.82-0.51,4.84-1.52,6.17-3.1
				c1.33-1.58,1.99-3.72,1.99-6.55c0-1.98,0.01-4.26,0.01-7.4l0-0.25l0.25-0.04c0.09-0.02,0.17-0.03,0.25-0.04l0.03-0.01
				c3.79-0.67,14.96-2.67,23.03-4.11l0.17-0.03l0.11,0.13c0.54,0.66,1.13,1.27,1.76,1.83l0.01,0.01l4.46,4.46
				c0.02,0.02,0.04,0.04,0.06,0.06l0.02,0.02c0.46,0.52,0.89,0.94,1.34,1.34c3.04,2.65,6.87,4.05,11.05,4.05
				c0.98,0,1.98-0.08,2.98-0.24l1.94-0.3c6.38-1,6.76-1.06,14.39-2.41c0.27-0.05,0.54-0.1,0.81-0.17l0.01,0
				c5.95-1.22,11.23-4.07,14.86-8.03l0.19-0.21l0.22,0.18c0.49,0.4,0.97,0.8,1.46,1.2l1.05,0.86c1.53,1.25,3.41,1.95,5.31,1.95
				c2.51,0,4.88-1.2,6.69-3.38c0.59-0.71,1.19-1.41,1.78-2.1l0.02-0.03c0.76-0.89,1.4-1.63,2.04-2.41c0.61-0.74,1.01-1.44,1.26-1.91
				l0.05-0.09c0.04-0.07,0.07-0.13,0.12-0.2l1.26-2.08c0.67-1.11,0.6-2.51-0.18-3.55l-1.47-1.95c-0.02-0.03-0.04-0.06-0.06-0.08
				l-0.02-0.02l0.24-0.17l-0.25,0.17c0-0.01-0.01-0.01-0.01-0.02l0,0c-0.33-0.5-0.89-1.32-1.82-2.13c-0.06-0.05-0.12-0.1-0.18-0.15
				l-0.2-0.17l0.14-0.22c2.09-3.29,3.23-6.98,3.31-10.69l0.04-1.95c0.14-6.42,0.15-6.81,0.16-14.42c0-2.83-0.9-5.06-2.69-6.62
				l-0.02-0.01l-5.46-5.49c-0.05-0.05-0.11-0.1-0.16-0.15l-0.01-0.01c-0.1-0.1-0.2-0.18-0.29-0.26c-1.02-0.85-2.21-1.39-3.54-1.62
				l-0.87-0.15l0.78-0.41c7.3-3.79,12.11-11.22,12.25-18.94c0.1-5.33-2-10.27-5.76-13.54c-0.1-0.09-0.21-0.18-0.31-0.26l-0.24-0.2
				l0.22-0.23c3.3-3.51,5.42-7.86,5.96-12.24c0.71-5.81-1.13-11.29-5.05-15.04l-0.01-0.01c-0.02-0.02-0.04-0.05-0.07-0.07
				l-5.36-5.38c-0.07-0.07-0.14-0.14-0.22-0.2l-0.02-0.02c-2.41-2.36-5.49-3.91-8.91-4.48c-1.04-0.17-2.11-0.26-3.17-0.26
				c-1.43,0-2.89,0.16-4.33,0.48l-0.35,0.08l-0.02-0.35c-0.19-4.29-1.78-8.29-4.48-11.28l-0.01-0.01c-0.06-0.07-0.12-0.13-0.18-0.2
				c-0.25-0.26-0.5-0.52-0.77-0.77l-0.01-0.01l-5.61-5.62c-0.04-0.04-0.09-0.08-0.13-0.12l-0.01-0.01c-0.24-0.23-0.47-0.44-0.7-0.63
				c-3.07-2.6-6.87-3.97-10.99-3.97c-0.99,0-2,0.08-3,0.24c-4.38,0.7-8.43,2.75-11.72,5.92c-3.2,3.1-5.43,7.12-6.28,11.34
				l-0.04,0.19l-0.19,0.04c-0.73,0.15-1.52,0.3-2.51,0.48l-0.16,0.03l-0.11-0.11c-0.37-0.38-0.75-0.73-1.14-1.06
				c-0.68-0.58-1.42-1.11-2.19-1.57l-0.06-0.04l-0.04-0.06c-0.95-1.57-2.13-2.96-3.51-4.13c-3.07-2.6-6.87-3.97-10.99-3.97
				c-0.99,0-2,0.08-3,0.24c-3.41,0.55-6.71,1.96-9.55,4.1l-0.2,0.15l-0.18-0.18c-0.17-0.17-0.35-0.33-0.54-0.49
				c-1.42-1.16-3.19-1.77-5.12-1.77c-0.7,0-1.44,0.08-2.18,0.24c-1.34,0.29-2.71,0.57-4.03,0.83c-0.98,0.2-1.87,0.37-2.77,0.56
				c-5,1.04-7.54,3.89-7.79,8.72l-0.03,0.59l-0.8-0.65c-0.6-0.49-1.16-0.94-1.7-1.4c-1.62-1.39-3.53-2.12-5.53-2.12
				c-0.21,0-0.41,0.01-0.62,0.02c-2.29,0.18-4.39,1.31-6.05,3.27l-1.68,1.97c-0.71,0.84-1.45,1.7-2.18,2.56
				c-2.08,2.46-2.35,4.88-2.21,6.48c0.01,0.06,0.01,0.12,0.02,0.17l0.03,0.28l-0.33,0.05c-4.65,0.77-7.64,4.29-7.63,8.95
				c0.01,2.72,0,5.47-0.01,8.13l0,0.38c-0.02,5.31-0.04,10.8,0.05,16.21c0.08,4.87,2.03,9.27,5.48,12.37l0.22,0.19l-1.52,1.79
				c-0.71,0.83-1.42,1.67-2.13,2.5l-0.09,0.11H55.24z M61.24,203.64c-3.52,0-6.73-1.15-9.29-3.31c-0.37-0.32-0.74-0.66-1.08-1.02
				l-0.01-0.01l-5.73-5.72l0-0.02c-2.41-2.51-3.78-5.92-3.84-9.61c-0.03-1.73-0.07-3.26-0.11-4.61l0-0.03
				c-0.08-2.64-0.13-4.55-0.02-6.01c0.18-2.39,1-4.04,2.43-4.93l-0.29-0.24c-1.55-1.28-1.98-2.75-2.06-3.77
				c-0.13-1.55,0.43-3.05,1.65-4.44c0.45-0.52,0.9-1.04,1.3-1.51l-0.89-0.73c-1.55-1.28-1.98-2.75-2.06-3.77
				c-0.13-1.55,0.43-3.05,1.65-4.44c0.56-0.63,1.11-1.29,1.64-1.93c-0.54-0.2-1.03-0.47-1.45-0.82c-1.24-1.04-1.87-2.55-1.86-4.49
				l0-1.37c0.03-10.19,0.03-10.59-0.01-21.67c-0.01-3.46,1.97-5.75,5.43-6.3c1.44-0.23,2.92-0.5,4.36-0.77l0.02,0
				c0.7-0.13,1.4-0.26,2.1-0.38c0.59-0.11,1.32-0.24,2.12-0.24c0.55,0,1.04,0.06,1.51,0.19c0.22-0.39,0.48-0.76,0.78-1.12
				c0.72-0.85,1.43-1.69,2.29-2.69l1.57-1.84c0.75-0.88,1.59-1.51,2.5-1.88c-0.05-0.09-0.09-0.17-0.13-0.26l-0.01-0.02
				c-0.93-0.48-1.79-1.05-2.55-1.7c-3.06-2.59-4.78-6.34-4.85-10.57c-0.09-5.37-0.07-10.84-0.05-16.12l0-0.38
				c0.01-2.68,0.02-5.45,0.01-8.17c-0.01-3.28,1.94-5.56,5.22-6.11c1.34-0.22,2.7-0.47,3.92-0.69c-0.89-1.05-1.17-2.15-1.24-2.92
				c-0.09-1.05,0.1-2.67,1.54-4.37c0.76-0.9,1.54-1.81,2.29-2.69l1.57-1.84c1.17-1.38,2.55-2.14,4.08-2.26
				c0.13-0.01,0.27-0.02,0.4-0.02c0.91,0,2.28,0.25,3.66,1.43c0.57,0.49,1.17,0.98,1.75,1.44l0.02,0.01
				c0.73,0.59,1.34,1.08,1.95,1.61c0.64,0.55,1.03,1.13,1.31,1.55l0.03,0.05c0.05,0.07,0.1,0.14,0.15,0.21l0.86,1.15
				c0.36,0.31,0.74,0.62,1.18,0.98c0-2.86,0-5.31,0-6.94c0-3.94,1.6-5.88,5.52-6.7c0.9-0.19,1.82-0.37,2.75-0.56
				c1.34-0.27,2.72-0.54,4.08-0.84c0.54-0.12,1.06-0.18,1.56-0.18c1.59,0,2.68,0.61,3.31,1.12c0.66,0.54,1.46,1.48,1.77,3.03
				c2.95-3.22,6.83-5.35,10.97-6.01c0.85-0.14,1.7-0.21,2.54-0.21c3.43,0,6.59,1.14,9.13,3.29c1.34,1.14,2.45,2.52,3.3,4.12
				c0.89,0.47,1.73,1.04,2.5,1.69c0.71,0.6,1.38,1.3,1.99,2.09l0.13-0.02c1.48-0.25,2.87-0.49,4.29-0.79
				c0.74-0.15,1.44-0.19,2.1-0.13c0.25-4.03,1.96-8,4.85-11.2c2.97-3.29,6.9-5.47,11.08-6.14c0.85-0.14,1.7-0.21,2.54-0.21
				c3.43,0,6.59,1.14,9.13,3.29c0.14,0.12,0.29,0.25,0.44,0.39l0.01-0.01l0.21,0.21l5.65,5.66c0.25,0.23,0.48,0.47,0.7,0.7
				l0.42,0.42l-0.04,0.01c2.27,2.65,3.47,6.04,3.5,9.84c0.01,1.08,0.01,2.23,0.02,3.6c2.4-1.12,4.99-1.71,7.52-1.71
				c0.91,0,1.82,0.07,2.7,0.22c2.88,0.48,5.45,1.79,7.46,3.78l0.02,0l5.62,5.63c3.25,3.12,4.77,7.69,4.16,12.59
				c-0.6,4.87-3.49,9.68-7.75,12.92c0.14,0.23,0.27,0.47,0.4,0.72c0.98,0.5,1.89,1.11,2.69,1.81c3.12,2.72,4.86,6.85,4.78,11.32
				c-0.08,4.1-1.72,8.22-4.63,11.61c-2.82,3.28-6.59,5.59-10.64,6.53l1.95,4.54c0.12-0.02,0.23-0.04,0.35-0.06
				c0.31-0.05,0.62-0.11,0.93-0.17c0.45-0.09,0.89-0.13,1.31-0.13c1.08,0,2.03,0.29,2.84,0.86l-0.01-0.1l0.64,0.64l5.48,5.5
				c1.78,1.49,1.78,3.68,1.78,4.51c-0.01,7.58-0.02,7.96-0.16,14.33l-0.04,1.98c-0.09,4.09-1.69,8.14-4.52,11.46
				c0.03,0.03,0.06,0.05,0.1,0.08c0.14,0.11,0.27,0.23,0.41,0.34c0.6,0.49,1.29,1.04,1.94,1.6c0.64,0.55,1.03,1.12,1.31,1.54
				l0.02,0.03c0.05,0.08,0.11,0.16,0.17,0.24l1.59,2.11l-1.37,2.26c-0.06,0.11-0.12,0.21-0.18,0.31l-0.04,0.06
				c-0.23,0.42-0.52,0.94-0.97,1.47c-0.68,0.82-1.38,1.64-2,2.36l-0.01,0.02c-0.6,0.7-1.22,1.43-1.82,2.15
				c-1.61,1.94-3.33,2.34-4.48,2.34c-1.23,0-2.47-0.46-3.48-1.29l-1.05-0.86c-0.9-0.74-1.92-1.57-2.91-2.39
				c-0.37-0.3-0.69-0.64-0.96-1c-3.08,4.8-8.63,8.32-15.3,9.67c-0.23,0.06-0.46,0.1-0.69,0.14c-7.6,1.34-7.98,1.4-14.34,2.4
				l-1.93,0.3c-0.85,0.13-1.7,0.2-2.53,0.2c-3.48,0-6.65-1.16-9.16-3.35c-0.37-0.32-0.73-0.68-1.13-1.13l-4.6-4.6h-0.06l-0.06-0.11
				c-0.97-0.85-1.82-1.86-2.52-2.99c-13.74,2.46-21.92,3.91-24.98,4.46c-0.65,0.11-1.38,0.24-2.16,0.24c-0.26,0-0.51-0.01-0.75-0.04
				c0,3.89,0,7.36-0.01,10.37c-0.01,4.22-1.58,6.07-5.8,6.83c-6.05,1.09-12.06,2.17-19.52,3.49c-0.48,0.09-1.14,0.2-1.88,0.2
				c-1.28,0-2.37-0.36-3.25-1.08c-1.25-1.01-1.66-2.39-1.81-3.54c-3.08,4.19-7.65,7.08-12.37,7.79
				C62.89,203.58,62.05,203.64,61.24,203.64z M51.08,198.67l0.2,0.21c0.33,0.35,0.68,0.68,1.04,0.99c2.45,2.08,5.53,3.17,8.9,3.17
				c0.79,0,1.59-0.06,2.39-0.18c4.81-0.72,9.46-3.79,12.44-8.2l0.5-0.74l0.04,0.89c0.06,1.15,0.29,2.82,1.66,3.93
				c0.78,0.63,1.72,0.94,2.87,0.94c0.69,0,1.32-0.11,1.78-0.19c7.45-1.33,13.47-2.4,19.52-3.49c3.96-0.71,5.3-2.29,5.31-6.24
				c0.01-3.1,0.01-6.69,0.01-10.71v-0.36l0.35,0.07c0.31,0.06,0.64,0.09,0.99,0.09c0.73,0,1.43-0.12,2.05-0.23
				c3.08-0.55,11.32-2.02,25.18-4.49l0.2-0.04l0.11,0.18c0.68,1.13,1.51,2.14,2.47,2.99h0.01l4.27,4.27l0.02-0.06l0.36,0.41
				c0.44,0.51,0.84,0.91,1.23,1.26c2.4,2.09,5.44,3.2,8.77,3.2c0.8,0,1.62-0.07,2.44-0.19l1.93-0.3c6.36-1,6.74-1.06,14.33-2.4
				c0.22-0.04,0.44-0.08,0.66-0.14l0.01,0c6.69-1.36,12.21-4.92,15.16-9.78l0.25-0.41l0.26,0.41c0.29,0.46,0.66,0.88,1.1,1.24
				c0.99,0.82,2.01,1.65,2.91,2.39l1.05,0.86c0.91,0.75,2.01,1.16,3.1,1.16c1.48,0,2.87-0.74,4.02-2.13
				c0.6-0.73,1.23-1.45,1.83-2.16l0.01-0.02c0.62-0.72,1.32-1.54,1.99-2.36c0.41-0.49,0.69-0.99,0.91-1.38l0.04-0.06
				c0.06-0.11,0.12-0.21,0.19-0.33l1.16-1.92l-1.34-1.79c-0.07-0.09-0.13-0.18-0.19-0.27l-0.02-0.03c-0.26-0.39-0.62-0.93-1.2-1.43
				c-0.65-0.55-1.33-1.1-1.93-1.59c-0.14-0.11-0.28-0.23-0.42-0.34c-0.11-0.09-0.22-0.18-0.33-0.27l-0.24-0.2l0.2-0.23
				c2.86-3.25,4.49-7.26,4.58-11.31l0.04-1.98c0.14-6.36,0.15-6.74,0.16-14.32c0-0.75,0-2.75-1.57-4.06l-0.02-0.02l-5.48-5.51
				l-0.08-0.07c-0.08-0.08-0.15-0.14-0.22-0.2c-0.76-0.63-1.68-0.95-2.75-0.95c-0.38,0-0.78,0.04-1.2,0.12
				c-0.31,0.06-0.63,0.12-0.94,0.17c-0.19,0.03-0.39,0.07-0.58,0.1l-0.23,0.04l-2.43-5.64l0.36-0.08c4.06-0.86,7.84-3.13,10.66-6.41
				c2.82-3.28,4.41-7.27,4.49-11.23c0.08-4.3-1.59-8.26-4.57-10.86c-0.79-0.69-1.69-1.29-2.66-1.78l-0.09-0.04l-0.04-0.09
				c-0.18-0.35-0.37-0.69-0.56-1l-0.15-0.23l0.22-0.16c4.25-3.14,7.14-7.88,7.73-12.68c0.59-4.79-0.92-9.25-4.14-12.23l-0.45-0.42
				l0.04-0.01l-4.83-4.85l-0.02,0l-0.11-0.11c-1.93-1.97-4.44-3.26-7.24-3.73c-0.85-0.14-1.73-0.21-2.6-0.21
				c-2.6,0-5.25,0.64-7.69,1.86L178.86,55l0-0.48c-0.01-1.58-0.01-2.87-0.02-4.07c-0.03-3.84-1.3-7.24-3.69-9.83l-0.11-0.12
				c-0.19-0.2-0.39-0.4-0.6-0.6l-0.01-0.01l-5.6-5.61l-0.05-0.05c-0.22-0.21-0.43-0.4-0.63-0.57c-2.43-2.06-5.46-3.15-8.75-3.15
				c-0.81,0-1.63,0.07-2.45,0.2c-4.05,0.65-7.86,2.76-10.74,5.95c-2.87,3.18-4.55,7.14-4.71,11.15l-0.01,0.34l-0.33-0.06
				c-0.68-0.11-1.43-0.09-2.21,0.08c-1.43,0.3-2.83,0.54-4.31,0.79l-0.48,0.08l-0.11-0.14c-0.61-0.81-1.29-1.53-2.01-2.14
				c-0.76-0.64-1.59-1.2-2.48-1.66l-0.08-0.04l-0.04-0.08c-0.82-1.56-1.89-2.91-3.2-4.02c-2.43-2.06-5.46-3.15-8.74-3.15
				c-0.8,0-1.63,0.07-2.45,0.2c-4.21,0.67-8.13,2.91-11.04,6.29l-0.45,0.53l-0.07-0.69c-0.18-1.73-1-2.73-1.65-3.27
				c-0.55-0.45-1.51-0.99-2.93-0.99c-0.45,0-0.94,0.06-1.43,0.16c-1.37,0.3-2.75,0.58-4.09,0.84c-0.93,0.19-1.84,0.37-2.74,0.56
				c-3.67,0.76-5.04,2.42-5.04,6.11c0,1.74,0,4.43,0,7.56l0,0.62l-0.49-0.39c-0.03-0.02-0.06-0.05-0.08-0.07
				c-0.03-0.02-0.05-0.05-0.08-0.07c-0.59-0.48-1.08-0.88-1.54-1.27l-0.03-0.02l-0.9-1.2c-0.06-0.08-0.11-0.16-0.17-0.24l-0.03-0.05
				c-0.26-0.39-0.63-0.93-1.21-1.43c-0.61-0.52-1.21-1.01-1.94-1.6l-0.02-0.01c-0.58-0.47-1.19-0.96-1.76-1.45
				c-0.99-0.85-2.09-1.28-3.27-1.28c-0.12,0-0.24,0-0.35,0.01c-1.37,0.11-2.6,0.8-3.67,2.05l-1.57,1.84
				c-0.75,0.88-1.53,1.79-2.28,2.68c-1.31,1.55-1.48,2.99-1.4,3.93c0.07,0.77,0.38,1.91,1.44,2.95l0.41,0.4l-0.57,0.1
				c-1.35,0.24-2.91,0.53-4.46,0.78c-2.96,0.49-4.73,2.56-4.72,5.52c0.01,2.72,0,5.49-0.01,8.17l0,0.38
				c-0.02,5.28-0.04,10.74,0.05,16.11c0.07,4.06,1.72,7.65,4.64,10.13c0.75,0.64,1.6,1.2,2.52,1.66l0.09,0.04l0.1,0.2
				c0.09,0.19,0.18,0.37,0.29,0.54l0.18,0.32l-0.35,0.12c-0.94,0.31-1.8,0.92-2.57,1.82l-1.57,1.84c-0.85,1-1.57,1.84-2.29,2.69
				c-0.33,0.39-0.6,0.79-0.83,1.23l-0.12,0.22l-0.24-0.08c-0.47-0.16-0.98-0.23-1.56-0.23c-0.74,0-1.44,0.13-2.01,0.23
				c-0.7,0.13-1.4,0.25-2.1,0.38l-0.02,0c-1.44,0.27-2.93,0.54-4.38,0.77c-3.14,0.5-4.94,2.58-4.93,5.71
				c0.03,11.08,0.03,11.48,0.01,21.67l0,1.37c0,1.76,0.55,3.11,1.65,4.03c0.46,0.39,1.02,0.67,1.66,0.84l0.45,0.12l-0.48,0.57
				c-0.57,0.68-1.16,1.38-1.76,2.07c-1.11,1.27-1.62,2.62-1.51,4c0.07,0.9,0.45,2.21,1.84,3.36l1.35,1.12l-0.19,0.23
				c-0.45,0.53-0.97,1.15-1.5,1.75c-1.11,1.27-1.62,2.62-1.51,4c0.07,0.9,0.45,2.21,1.84,3.36l0.98,0.81l-0.42,0.2
				c-1.47,0.71-2.31,2.28-2.49,4.65c-0.11,1.43-0.05,3.32,0.02,5.95l0,0.03c0.04,1.35,0.08,2.88,0.11,4.62
				c0.06,3.62,1.35,6.83,3.73,9.27l0.06,0.06l0,0.01L51.08,198.67L51.08,198.67z"/>
		</g>
	</g>
	<g>
		<g>
			<path class="st2" d="M205.79,166.83c-0.07-0.09-0.13-0.19-0.19-0.28c-0.27-0.41-0.65-0.96-1.26-1.49
				c-0.63-0.54-1.28-1.07-1.94-1.6c-0.25-0.2-0.49-0.41-0.74-0.61c2.8-3.18,4.56-7.24,4.65-11.5l0.04-1.95
				c0.14-6.38,0.15-6.76,0.16-14.35c0-0.79,0-2.89-1.68-4.29l-5.49-5.51c-0.01-0.01-0.02-0.02-0.04-0.04l-0.04-0.04l0,0
				c-0.08-0.07-0.15-0.15-0.24-0.22c-1.1-0.91-2.51-1.21-4.19-0.89c-0.51,0.1-1.01,0.18-1.52,0.27l-2.19-5.08
				c8.51-1.79,15.23-9.58,15.39-17.93c0.08-4.39-1.62-8.43-4.68-11.09c-0.83-0.73-1.75-1.33-2.72-1.82
				c-0.18-0.35-0.37-0.69-0.57-1.02c4.14-3.06,7.23-7.86,7.85-12.88c0.62-5.02-1.04-9.53-4.23-12.49l0.01,0l-5.36-5.38l-0.02,0
				c-1.91-1.95-4.44-3.31-7.41-3.81c-3.51-0.59-7.17,0.02-10.47,1.67c0-1.36-0.01-2.72-0.02-4.07c-0.03-3.91-1.35-7.41-3.77-10.03
				l0,0l-0.04-0.04c-0.22-0.24-0.45-0.47-0.69-0.69l-5.65-5.66l0,0c-0.21-0.2-0.42-0.4-0.64-0.58c-3.1-2.63-7.16-3.7-11.43-3.02
				c-8.51,1.36-15.35,8.96-15.7,17.38c-0.66-0.11-1.43-0.11-2.32,0.08c-1.41,0.29-2.82,0.53-4.3,0.79c-0.1,0.02-0.2,0.04-0.3,0.05
				c-0.6-0.8-1.28-1.54-2.05-2.19c-0.79-0.67-1.63-1.23-2.53-1.69c-0.82-1.56-1.91-2.96-3.27-4.11c-3.1-2.63-7.16-3.7-11.43-3.02
				c-4.41,0.71-8.38,3.09-11.22,6.39c-0.18-1.81-1.03-2.88-1.76-3.47c-0.84-0.68-2.32-1.39-4.62-0.89c-1.36,0.3-2.73,0.57-4.09,0.84
				c-0.92,0.18-1.83,0.37-2.75,0.56c-3.8,0.79-5.28,2.59-5.28,6.4c0,1.74,0,4.43,0,7.56c-0.06-0.05-0.11-0.09-0.17-0.14
				c-0.51-0.42-1.03-0.83-1.53-1.26l-0.88-1.17c-0.07-0.09-0.13-0.19-0.19-0.28c-0.27-0.41-0.65-0.97-1.26-1.49
				c-0.64-0.55-1.29-1.08-1.94-1.6c-0.6-0.48-1.19-0.96-1.78-1.46c-1.45-1.24-2.88-1.42-3.84-1.34c-1.45,0.11-2.75,0.84-3.88,2.16
				l-1.55,1.82c-0.77,0.9-1.54,1.8-2.3,2.7c-1.38,1.62-1.56,3.15-1.47,4.15c0.08,0.85,0.42,2.05,1.53,3.14
				c-1.49,0.27-2.97,0.54-4.46,0.78c-3.12,0.52-4.98,2.69-4.97,5.81c0.01,2.84,0,5.69-0.01,8.53c-0.02,5.29-0.04,10.76,0.05,16.14
				c0.07,4.14,1.76,7.82,4.75,10.35c0.8,0.67,1.66,1.24,2.58,1.7c0.11,0.22,0.22,0.45,0.35,0.66c-0.99,0.33-1.89,0.96-2.7,1.91
				l-1.57,1.84c-0.76,0.89-1.53,1.79-2.29,2.69c-0.37,0.44-0.65,0.87-0.86,1.28c-1.33-0.44-2.71-0.19-3.72-0.01
				c-0.7,0.13-1.4,0.25-2.1,0.38c-1.45,0.27-2.94,0.54-4.39,0.77c-3.3,0.52-5.19,2.71-5.18,6c0.03,11.02,0.03,11.42,0.01,21.67
				l0,1.37c0,1.85,0.59,3.28,1.76,4.26c0.52,0.44,1.12,0.73,1.77,0.9c-0.04,0.05-0.08,0.09-0.12,0.14c-0.6,0.72-1.2,1.43-1.82,2.14
				c-1.17,1.33-1.7,2.76-1.58,4.22c0.08,0.96,0.48,2.35,1.95,3.56l1.12,0.93c-0.49,0.59-0.99,1.17-1.49,1.75
				c-1.17,1.33-1.7,2.76-1.58,4.22c0.08,0.96,0.48,2.35,1.95,3.56l0.63,0.52c-1.26,0.61-2.44,1.97-2.66,4.9
				c-0.11,1.44-0.05,3.34,0.02,5.98c0.04,1.35,0.08,2.9,0.11,4.64c0.06,3.69,1.41,7,3.82,9.47l0,0.02l5.66,5.66l0,0
				c0.34,0.35,0.69,0.69,1.07,1.01c2.51,2.13,5.68,3.24,9.1,3.24c0.8,0,1.61-0.06,2.44-0.18c5.08-0.76,9.73-4.01,12.64-8.33
				c0.06,1.18,0.29,2.94,1.77,4.15c0.98,0.8,2.09,1.01,3.06,1.01c0.71,0,1.36-0.11,1.83-0.2c6.66-1.19,12.85-2.29,19.52-3.49
				c4.09-0.74,5.55-2.45,5.56-6.53c0.01-3.08,0.01-6.64,0.01-10.72c1.12,0.22,2.25,0.02,3.16-0.15c3.8-0.67,15.03-2.68,25.18-4.49
				c0.71,1.17,1.58,2.23,2.61,3.13c0,0,0,0,0,0l4.54,4.53l0-0.02c0.39,0.45,0.81,0.89,1.26,1.29c2.46,2.15,5.58,3.27,8.97,3.27
				c0.82,0,1.65-0.07,2.49-0.2l1.93-0.3c6.37-1,6.75-1.06,14.34-2.4c0.24-0.04,0.47-0.09,0.68-0.14c6.95-1.41,12.42-5.08,15.35-9.92
				c0.28,0.44,0.66,0.89,1.17,1.31c0.97,0.8,1.94,1.59,2.91,2.39l1.05,0.86c0.92,0.75,2.07,1.23,3.29,1.23
				c1.42,0,2.93-0.64,4.25-2.23c0.61-0.73,1.22-1.45,1.84-2.17c0.67-0.78,1.34-1.57,2-2.36c0.43-0.52,0.71-1.02,0.94-1.43
				c0.07-0.12,0.14-0.25,0.22-0.38l1.26-2.09L205.79,166.83z"/>
		</g>
	</g>
	<g>
		<g>
			<g>
				<path class="st3" d="M87.81,109.46C87.81,109.46,87.81,109.46,87.81,109.46c-0.01,0.01,0,0.02,0,0.03
					C87.81,109.49,87.81,109.47,87.81,109.46z"/>
			</g>
		</g>
		<g>
			<g>
				<path class="st3" d="M87.81,110.97c0.01-0.12,0.01-0.24,0.01-0.36l-0.32,3.89C87.6,113.32,87.71,112.14,87.81,110.97z"/>
			</g>
		</g>
		<g>
			<g>
				<path class="st3" d="M113.96,53.17c0.03-0.05,0.05-0.1,0.08-0.15C114,53.07,113.98,53.12,113.96,53.17z"/>
			</g>
		</g>
		<g>
			<g>
				<path class="st3" d="M116.05,52.53c-0.03,0-0.06,0.01-0.1,0.01c0.05,0.07,0.1,0.13,0.13,0.22
					C116.08,52.68,116.07,52.61,116.05,52.53z"/>
			</g>
		</g>
		<g>
			<g>
				<path class="st3" d="M170.36,101.85l0-4.28c0,0.93,0,3.63-0.01,4.29c1-0.23,2.08-0.46,3.19-0.71L170.36,101.85z"/>
			</g>
		</g>
		<g>
			<g>
				<path class="st3" d="M86.52,125.44l-4.24,0.76c0,0.01,0,0.02,0,0.03L86.52,125.44z"/>
			</g>
		</g>
		<g>
			<g>
				<path class="st3" d="M183.95,94.55c-0.14,0.03-0.28,0.06-0.42,0.1l0.5-0.11C184,94.54,183.98,94.54,183.95,94.55z"/>
			</g>
		</g>
		<g>
			<g>
				<path class="st4" d="M196.84,145.49c0.18-8.29,0.19-7.97,0.2-16.24c0-1.35-0.24-1.88-1.59-1.62c-2.88,0.55-5.76,1.02-8.63,1.55
					c-1.92,0.35-2.32,0.9-2.2,2.81c0.47,7.63,0.43,6.77,0.89,14.4c0.11,1.9-1.88,2.26-4.1,2.44c-0.01-0.04-0.01-0.08-0.02-0.12
					c0.01-1.67,0.01-3.6,0.02-6.35c0-1.35-0.24-1.88-1.59-1.62c-2.88,0.55-5.76,1.02-8.63,1.55c-1.92,0.35-2.32,0.9-2.2,2.81
					c0.47,7.63,0.43,6.06,0.89,13.7c0.08,1.38-2.44,2.57-4.66,3.27c-7.64,1.84-6.81,1.65-14.5,3.48c-1.92,0.46-1.92-1.53-1.71-3.79
					c0.48-0.15,0.89-0.31,1.31-0.41l0.69-0.22c0.64,0,1.29-0.03,1.96-0.14c7.7-1.21,2.83-0.32,9.53-1.5
					c1.9-0.34,3.46-2.17,3.45-4.07c-0.01-2.25,0.02-4.51,0-6.77c-0.01-1.92-0.48-2.23-2.42-1.77c-7.71,1.85-1.73,0.74-9.44,2.58
					c-1.53,0.36-1.84-0.83-1.8-2.48c0.02-0.77,0.62-1.54,1.38-1.72c0,0,0.01,0,0.01,0l3.2-1c0.77-0.24,1.34-0.99,1.34-1.77l0-5.81
					c0-0.85-0.69-1.42-1.54-1.27l-2.81,0.5c-7.07,1.31-12.74,7.78-12.87,14.53c-0.01,0.44,0.01,0.86,0.04,1.28
					c-8.97,1.6-23.57,4.17-26.02,4.68c-1.44,0.3-1.91-0.01-1.91-1.52c0.06-12.16,0.03-14.07,0.03-26.22c0-2.54-0.17-2.68-2.73-2.22
					c-2.18,0.39-4.37,0.83-6.55,1.16c-1.47,0.22-2.01,0.99-2,2.37c0.02,3.77,0.01,7.55,0.01,11.48l-0.01,11.48c0,0.85,0,1.97,0,2.6
					c0,7.57,0,4.41,0.02,11.97c0,2.34,0.2,2.49,2.58,2.06c4.91-0.87,22.21-3.96,33.58-6c-0.25,0.97-0.4,1.96-0.42,2.96
					c-0.13,6.83,5.09,11.61,11.96,10.53c8.26-1.3,7.94-1.23,16.2-2.69c0.19-0.03,0.36-0.07,0.52-0.11
					c8.79-1.76,14.75-7.68,14.89-14.44c0-0.01,0-0.01,0-0.02c0.95,0.09,1.93,0.07,2.95-0.09
					C190.97,158.62,196.69,152.38,196.84,145.49z"/>
			</g>
		</g>
		<g>
			<g>
				<path class="st4" d="M101.62,96.43c6.81-1.11,12.52-6.66,12.67-12.65c0.05-1.91,0.08-3.29,0.11-4.43
					c1.38-0.25,2.71-0.48,3.95-0.71c3.42-0.61,6.08-1.08,7.16-1.27c1.35-0.23,2.02-0.88,2.01-2.27c0-0.03,0-0.06,0-0.09
					c0-0.06,0-0.12,0-0.18v-3.1c0-6.59,0.02-13.17-0.03-19.75c-0.05-7.06-5.5-11.76-12.23-10.68c-6.81,1.09-12.52,7.33-12.67,14.22
					c-0.18,8.29-0.22,2.67-0.23,10.93c0,1.35,0.6,1.82,1.95,1.56c2.88-0.55,4.92-0.87,7.8-1.4c1.72-0.32,2.21-0.79,2.21-2.25
					l-0.01-0.01l-0.55-10.23c-0.02-0.32,0.06-0.64,0.2-0.93c0.02-0.06,0.05-0.11,0.08-0.15c0.21-0.35,0.51-0.63,0.86-0.76
					c0.14-0.05,0.27-0.08,0.39-0.08c0.28,0,0.51,0.14,0.67,0.35c0.03,0,0.06-0.01,0.1-0.01c0.01,0.08,0.02,0.15,0.04,0.22
					c0.06,0.13,0.09,0.28,0.1,0.44l0.03,0.57c0,0.01,0,0.03,0.01,0.04c0.27,4.31,0.55,8.62,0.81,12.94
					c0.02,0.29,0.03,0.57,0.05,0.84c-1.75,0.31-2.82,0.49-3.9,0.68c-0.09,0.01-0.18,0.02-0.28,0.04c-0.34,0.06-0.68,0.12-1.02,0.19
					c-1.53,0.26-3.5,0.61-7.37,1.32c-0.08,0.01-0.16,0.03-0.24,0.04c-1.92,0.35-2.32,0.83-2.2,2.49c0.35,4.94,0.42,5.78,0.62,8.64
					l-0.03,0.18c0.03-0.01,0.06,0.11,0.06,0.27c0.06,0.89,0.14,1.96,0.23,3.39c0.11,1.64-1.53,3.38-2.75,1.98
					c-0.27-0.3-0.15-1.88-0.17-2.23v-4.14l-0.01,0l-0.07-10.64l-0.05-7.46c0-0.13,0-0.25,0-0.38c0-6.34-0.03-14.79,0-17.04
					c0.02-1.44-0.61-1.92-2.03-1.61c-2.29,0.5-4.58,0.93-6.87,1.41c-2.12,0.44-2.4,0.78-2.41,2.87c-0.01,6.66-0.01,27.14,0,33.8
					c0,0.06,0,0.1,0,0.16l-0.01,0v3.78C88.58,94.28,94.89,97.52,101.62,96.43z"/>
			</g>
		</g>
		<g>
			<g>
				<path class="st4" d="M111.95,99.34c0.09,2.27,0.11,4.56,0.18,6.84c0.06,2.11,0.35,2.34,2.44,1.97
					c6.66-1.18,17.48-3.12,24.14-4.32c2.38-0.43,2.58-0.65,2.58-2.99c0.01-3.84,0.01-7.68,0.01-11.52
					c5.19-0.91,17.52-3.08,22.7-4.07c1.38-0.26,3.89-0.71,4.61-2.5c0.04,0.42,0,1.49,0.7,1.37c7.73-1.41,8.31-1.38,16.03-2.99
					c5.84-1.22,10.87-7.04,11.58-12.84c0.73-5.96-2.72-10.95-8.22-11.87c-8.24-1.38-16.54,5.69-16.91,14.45
					c-0.05,1.17-0.34,1.75-1.56,1.79c-1.2,0.04-0.81-0.95-0.81-1.6c-0.02-8.79,0.03-17.59-0.03-26.37
					c-0.05-7.06-5.5-11.76-12.23-10.68c-6.81,1.09-12.52,7.33-12.67,14.22c-0.18,8.29-0.22,2.67-0.23,10.93
					c0,1.35,0.6,1.82,1.95,1.56c2.88-0.55,4.92-0.87,7.8-1.4c1.92-0.35,2.32-0.9,2.2-2.81c-0.27-4.27-0.21-4.24-0.19-4.73
					l-0.28-5.22c-0.04-0.77,0.47-1.6,1.14-1.85c0.14-0.05,0.27-0.08,0.39-0.08c0.49,0,0.87,0.4,0.91,1.01l0.85,14.09l-0.07-0.08
					c0.03,0.6,0.07,1.19,0.1,1.79c-0.36-0.01-0.73-0.01-1.11,0.02c-6.71,0.45-12.56,5.75-13.79,12.53c-0.2,1.12-0.26,2.24-0.4,3.48
					c-0.76,0.14-1.5,0.27-2.46,0.44c0-0.56,0-1.13,0-1.88l-0.01-11.47c0-3.92-0.01-7.7,0.01-11.48c0.01-1.38-0.53-1.96-2-1.66
					c-2.18,0.45-4.37,0.79-6.55,1.18c-2.57,0.46-2.73,0.66-2.73,3.2c0,12.15-0.03,24.3,0.03,36.44c0.01,1.51-0.47,1.98-1.91,2.2
					c-3.35,0.51-10.87,1.94-14.23,2.5C112.49,97.2,111.9,97.93,111.95,99.34z M183.39,67.31c0-0.77,0.89-1.57,1.98-1.78
					c0.22-0.04,0.43-0.06,0.63-0.06c0.78,0.03,1.35,0.45,1.35,1.06v5.55l-3.96,0.77V67.31z M155.11,72.02
					c0-0.77,0.89-1.57,1.98-1.78c0.22-0.04,0.43-0.06,0.63-0.06c0.78,0.03,1.35,0.45,1.35,1.06v5.55l-3.96,0.77V72.02z"/>
			</g>
		</g>
		<g>
			<g>
				<path class="st4" d="M72.08,101.46c6.45-0.97,12.28-7.14,12.69-13.76c0.28-4.67,0.13-9.29,0.17-13.93c0-0.58,0-1.15,0-1.81
					l0.01-11.38l-7.89,1.41c-1.43,0.25-1.81,1.06-1.91,2.31c-0.64,7.92-1.31,15.84-1.99,23.77c-0.17,2.05-0.2,2.05-2.42,2.17
					c0-0.48-0.04-0.99,0.01-1.5c0.67-7.71,1.35-15.42,2.04-23.13c0.24-2.67,0.04-2.86-2.61-2.38c-2.77,0.5-5.54,1.02-8.32,1.48
					c-1.33,0.22-1.95,0.87-1.95,2.24c0.02,8.21-0.1,16.44,0.04,24.62C60.06,98.16,65.5,102.45,72.08,101.46z"/>
			</g>
		</g>
		<g>
			<g>
				<path class="st4" d="M75.12,174.8c2.19-0.39,4.37-0.82,6.56-1.17c1.45-0.23,2.14-0.87,2.14-2.43c-0.03-11.51-0.03-17.09,0-28.61
					c0-1.43-0.55-1.93-1.98-1.67c-6.61,1.21-13.22,2.4-19.83,3.55c-1.43,0.25-1.81,1.06-1.91,2.31c-0.64,7.92-1.31,25.68-1.99,33.6
					c-0.17,2.05-0.2,2.05-2.42,2.17c0-0.48-0.03-0.99,0.01-1.5c0.68-10.38,0.18-11.27-1.76-10.92c-2.77,0.5-5.54,1.02-8.32,1.48
					c-1.33,0.22-0.85,4.09-0.71,12.27c0.11,6.6,5.55,10.89,12.14,9.9c6.45-0.97,12.28-7.14,12.68-13.76
					c0.28-4.67,0.13-19.13,0.17-23.77c0-0.58,0-1.15,0-1.81c1.02-0.18,1.75-0.31,2.65-0.47c0,0.68,0,16.08,0,16.65
					c0,7.62,0.01-5.52,0.01,2.1C72.54,175.05,72.76,175.23,75.12,174.8z"/>
			</g>
		</g>
		<g>
			<g>
				<path class="st4" d="M44.82,142.25c0,1.43,0.55,1.93,1.98,1.67c4.63-0.85,16.56-2.99,25.56-4.59v0.02l8.08-1.44
					c0.38-0.07,0.74-0.13,1.05-0.18c0.03,0,0.05-0.01,0.07-0.02l6.81-1.22c2.77-0.5,5.54-1.02,8.32-1.48
					c1.33-0.22,1.95-0.87,1.95-2.24c-0.01-2.48,0-4.96,0.01-7.45c5.23-0.93,10.46-1.86,15.69-2.79c0.62-0.11,1.24-0.22,2.08-0.37
					l11.36-2.04c1.55-0.28,3.06-0.55,4.57-0.82c1.51,5.04,6.18,8.07,11.72,7.18c5.88-0.94,10.94-5.73,12.31-11.47l0.85-0.15l0.01,0
					c0.59-0.11,1.2-0.22,1.84-0.33c0,3.15,0,1.68,0,0c0,0,0.01,0,0.01,0c0,0.18,0,0.36,0,0.57c0,2.81,0.22,3.03,2.58,2.61
					c2.19-0.39,4.37-0.83,6.56-1.17c1.45-0.22,2.14-0.97,2.14-2.86c0-0.41,0-0.79,0-1.15c4.95-0.88,9.92-1.78,13.81-2.5
					c7.07-1.31,12.74-7.78,12.87-14.53c0.13-6.83-5.09-11.61-11.96-10.54c-8.26,1.3-15.83,2.41-24.09,3.87
					c-1.35,0.24-1.92,0.94-1.91,2.29c0.03,2.13,0.01,4.27,0.01,6.41c0,0-0.01,0-0.01,0v7.06c-0.74,0.19-1.46,0.37-2.19,0.55
					c0.04-2.39,0.05-4.3,0.05-9.12c0-1.35-0.24-1.88-1.59-1.62c-2.88,0.55-5.76,1.02-8.63,1.55c-1.92,0.35-2.32,0.9-2.2,2.81
					c0.47,7.63,0.43,6.77,0.89,14.4c0.11,1.9-1.88,2.26-4.1,2.44c-0.07-0.47-0.15-0.87-0.18-1.28l-0.01-0.11
					c-0.02-1.75,0-3.5,0-5.25c0-2.63-0.17-2.77-2.69-2.32c-12.03,2.15-24.06,4.27-36.08,6.48l-3.7,0.66
					c-0.01-1.88-0.03-3.76-0.06-5.64c-0.11-6.6-5.55-10.89-12.14-9.9c-6.45,0.97-12.28,7.14-12.68,13.76
					c-0.28,4.67-0.13,9.29-0.17,13.93c0,0.58,0,1.15,0,1.81c-0.15,0.03-0.6,0.11-1.25,0.22c-3.93,0.7-15.48,2.77-16.25,2.9
					c0-0.68,0-11.34,0-11.92c0-7.62-0.01,6.33-0.01-1.3c0-2.32-0.22-2.49-2.58-2.07c-2.19,0.39-4.37,0.82-6.56,1.17
					c-1.45,0.23-2.14,0.87-2.14,2.43C44.86,130.7,44.85,130.73,44.82,142.25z M170.36,97.57l13.17-2.92
					c0.14-0.03,0.28-0.06,0.42-0.1c0.03-0.01,0.05-0.01,0.08-0.01l0.52-0.11c0.76-0.16,1.55,0.64,1.78,1.78
					c0.05,0.23,0.07,0.46,0.07,0.67c-0.02,0.85-0.42,1.56-1.02,1.68l-11.84,2.6c-1.11,0.24-2.18,0.48-3.19,0.71
					C170.35,101.2,170.35,98.5,170.36,97.57z M82.28,126.2l1.38-16.53c0.03-0.77,1-1.35,2.16-1.3c0.23,0.01,0.46,0.04,0.67,0.1
					c0.64,0.17,1.13,0.55,1.31,0.99c0,0,0.01,0,0.01,0c0,0.01,0,0.02,0,0.03c0.04,0.12,0.07,0.24,0.06,0.37l-0.06,0.74
					c0,0.12,0,0.24-0.01,0.36c-0.1,1.18-0.21,2.35-0.31,3.53l-0.9,10.93l-0.07,0.01l-4.24,0.79
					C82.28,126.22,82.28,126.21,82.28,126.2L82.28,126.2z"/>
			</g>
		</g>
		<g>
			<g>
				<path class="st5" d="M122.89,81.22c-0.88-0.76-1.72-0.63-2.61,0.42c-1.28,1.51-2.57,3.01-3.85,4.52
					c-0.82,0.97-0.86,1.82-0.02,2.51c1.32,1.08,2.63,2.16,3.95,3.25c0.86,0.7,1.66,0.46,2.48-0.52c1.26-1.52,2.57-3.01,3.84-4.53
					c0.32-0.39,0.53-0.86,0.85-1.38c-0.33-0.44-0.56-0.89-0.91-1.19C125.39,83.24,124.11,82.26,122.89,81.22z"/>
			</g>
		</g>
		<g>
			<g>
				<path class="st5" d="M129.67,127.86c-1.28,1.51-2.57,3.01-3.85,4.52c-0.05,0.06-0.09,0.12-0.13,0.18
					c-0.05-0.06-0.09-0.13-0.15-0.17c-1.22-1.05-2.5-2.02-3.72-3.07c-0.88-0.76-1.72-0.63-2.61,0.42c-1.28,1.51-2.57,3.01-3.85,4.52
					c-0.82,0.97-0.86,1.82-0.02,2.51c1.32,1.08,2.63,2.16,3.95,3.25c0.86,0.7,1.66,0.46,2.48-0.52c1.26-1.52,2.57-3.01,3.84-4.53
					c0.04-0.05,0.07-0.1,0.1-0.15c0.03,0.03,0.06,0.06,0.09,0.09c1.32,1.08,2.63,2.16,3.95,3.25c0.86,0.7,1.66,0.46,2.48-0.52
					c1.26-1.52,2.57-3.01,3.84-4.53c0.32-0.39,0.53-0.86,0.85-1.38c-0.33-0.45-0.56-0.89-0.91-1.19c-1.22-1.05-2.5-2.02-3.72-3.07
					C131.4,126.69,130.56,126.81,129.67,127.86z"/>
			</g>
		</g>
		<g>
			<g>
				<path class="st5" d="M55.76,152.75c0.85-1.01,0.76-1.79-0.08-2.47c-1.3-1.03-2.55-2.12-3.84-3.15
					c-0.33-0.26-0.76-0.39-1.23-0.63c-0.5,0.42-0.99,0.74-1.36,1.16c-1.26,1.44-2.47,2.94-3.73,4.39c-0.92,1.05-0.94,1.89-0.05,2.62
					c1.28,1.05,2.55,2.11,3.83,3.16c0.05,0.04,0.1,0.07,0.15,0.11c-0.06,0.06-0.14,0.12-0.2,0.18c-1.26,1.44-2.47,2.94-3.73,4.39
					c-0.92,1.05-0.94,1.89-0.05,2.62c1.28,1.05,2.55,2.11,3.83,3.16c0.82,0.67,1.67,0.56,2.51-0.43c1.32-1.55,2.63-3.11,3.95-4.66
					c0.85-1.01,0.76-1.79-0.08-2.47c-1.3-1.03-2.55-2.12-3.84-3.15c-0.04-0.03-0.09-0.05-0.13-0.08c0.04-0.04,0.07-0.07,0.11-0.11
					C53.13,155.86,54.45,154.3,55.76,152.75z"/>
			</g>
		</g>
		<g>
			<g>
				<path class="st5" d="M192.4,158.94c-0.88-0.76-1.72-0.63-2.61,0.42c-1.28,1.51-2.57,3.01-3.85,4.52
					c-0.82,0.97-0.86,1.82-0.02,2.51c1.32,1.08,2.63,2.16,3.95,3.25c0.86,0.7,1.66,0.46,2.48-0.52c1.26-1.52,2.57-3.01,3.84-4.53
					c0.32-0.39,0.53-0.86,0.85-1.38c-0.33-0.45-0.56-0.89-0.91-1.19C194.91,160.97,193.62,159.99,192.4,158.94z"/>
			</g>
		</g>
		<g>
			<g>
				<path class="st5" d="M172.85,129.13c-1.28,1.51-2.57,3.01-3.85,4.52c-0.82,0.97-0.86,1.82-0.02,2.51
					c1.32,1.08,2.63,2.16,3.95,3.25c0.86,0.7,1.66,0.46,2.48-0.52c1.26-1.52,2.57-3.01,3.84-4.53c0.32-0.39,0.53-0.86,0.85-1.38
					c-0.33-0.44-0.56-0.89-0.91-1.19c-1.22-1.05-2.5-2.02-3.72-3.07C174.58,127.96,173.74,128.09,172.85,129.13z"/>
			</g>
		</g>
		<g>
			<g>
				<path class="st5" d="M155.55,123.29c-0.88-0.76-1.72-0.63-2.61,0.42c-1.28,1.51-2.57,3.01-3.85,4.52
					c-0.82,0.97-0.86,1.82-0.02,2.51c1.32,1.08,2.63,2.16,3.95,3.25c0.86,0.7,1.66,0.46,2.48-0.52c1.26-1.52,2.57-3.01,3.84-4.53
					c0.32-0.39,0.53-0.86,0.85-1.38c-0.33-0.44-0.56-0.89-0.91-1.19C158.05,125.31,156.77,124.33,155.55,123.29z"/>
			</g>
		</g>
		<g>
			<g>
				<path class="st5" d="M68.39,57.91c1.32,1.08,2.63,2.16,3.95,3.25c0.86,0.7,1.66,0.46,2.48-0.52c1.26-1.52,2.57-3.01,3.84-4.53
					c0.32-0.39,0.53-0.86,0.85-1.38c-0.33-0.44-0.56-0.89-0.91-1.19c-1.22-1.05-2.5-2.02-3.72-3.07c-0.88-0.76-1.72-0.63-2.61,0.42
					c-1.28,1.51-2.57,3.01-3.85,4.52C67.59,56.37,67.56,57.22,68.39,57.91z"/>
			</g>
		</g>
		<g>
			<g>
				<path class="st4" d="M96.44,154.31l-0.28,0.05l-5.04,0.9l-0.03,0.01h0l-1.08,0.19l-1.04,0.19c0.07-0.01,0.14-0.01,0.21-0.02
					c-1.98,0.4-2.12,0.76-2.12,3.08c0,3.36,0,5.69,0,7.57c0,4.93-0.01,0.31,0.04,9.09c0.01,1.51-0.47,1.98-1.91,2.2
					c-3.35,0.51-6.24,1.11-9.6,1.67c-1.44,0.24-2.03,0.98-1.98,2.39c0.09,2.27,0.11,4.56,0.18,6.84c0.06,2.11,0.35,2.34,2.44,1.97
					c6.66-1.18,12.85-2.29,19.51-3.49c2.38-0.43,2.58-0.65,2.58-2.99c0.01-5.41,0-12.29,0.01-20.82c0-3.42,0-6.08,0.01-7.16
					C98.36,154.63,97.83,154.06,96.44,154.31z"/>
			</g>
		</g>
		<g>
			<g>
				<path class="st5" d="M94.04,140.05c-0.88-0.76-1.72-0.63-2.61,0.42c-1.28,1.51-2.57,3.01-3.85,4.52
					c-0.82,0.97-0.86,1.82-0.02,2.51c1.32,1.08,2.63,2.16,3.95,3.25c0.86,0.7,1.66,0.46,2.48-0.52c1.26-1.52,2.57-3.01,3.84-4.53
					c0.32-0.39,0.53-0.86,0.85-1.38c-0.33-0.44-0.56-0.89-0.91-1.19C96.54,142.07,95.25,141.09,94.04,140.05z"/>
			</g>
		</g>
		<g>
			<g>
				<path class="st5" d="M60.19,115.62c1.32,1.08,2.63,2.16,3.95,3.25c0.86,0.7,1.66,0.46,2.48-0.52c1.26-1.52,2.57-3.01,3.84-4.53
					c0.32-0.39,0.53-0.86,0.85-1.38c-0.33-0.44-0.56-0.89-0.91-1.19c-1.22-1.05-2.5-2.02-3.72-3.07c-0.88-0.76-1.72-0.63-2.61,0.42
					c-1.28,1.51-2.57,3.01-3.85,4.52C59.39,114.08,59.36,114.93,60.19,115.62z"/>
			</g>
		</g>
	</g>
</g>
</svg>
